<svg width="381" height="282" fill="none" xmlns="http://www.w3.org/2000/svg"><path fill-rule="evenodd" clip-rule="evenodd" d="M143.012 276.386c62.66 18.119 93.71-49.418 147.471-43.868 29.429 3.039 88.025 17.773 88.659-86.419.166-67.267-61.71-84.567-125.898-50.54-18.868 7.219-33.704 4.83-49.778-2.599-16.073-7.429-36.574-40.216-75.616-47.217-117.489-21.068-219.498 162.79 15.162 230.643z" fill="#FFE86E"/><path fill-rule="evenodd" clip-rule="evenodd" d="M293.467 108.253c1.182-.564 3.287.562 2.048 2.341-2.744 3.938 7.698 11.922 4.379 4.93-.355-.748-2.166-5.913.43-3.234 2.595 2.679 6.154 14.459 3.767 18.491-2.096 3.539-7.584 5.189-15.061 5.335l-.337.005-.159.008c-4.408.173-7.73-2.579-9.848-7.906l-.101-.26c-2.143-5.575-1.512-10.028 2.042-13.006.064-.054.133-.103.206-.145l.111-.059 12.523-6.5z" fill="#fff"/><path fill-rule="evenodd" clip-rule="evenodd" d="M56.16 2.46c-.509-.732-1.339-1.159-2.23-1.056a2.343 2.343 0 00-1.96 1.603l-.077.234c-.057.172-.125.369-.205.59a36.954 36.954 0 01-.83 2.09c-.926 2.146-2.062 4.287-3.414 6.276-2.916 4.291-6.414 7.268-10.498 8.395a1.199 1.199 0 00-.837 1.474c.09.324 6.019 3.342 12.1 2.637 5.898-.684 11.954-5.083 12.004-5.385l.08-.629.022-.21c.455-4.574-.308-9.75-3.353-14.782-.253-.418-.52-.83-.802-1.236z" fill="#E7EAEE"/><path fill-rule="evenodd" clip-rule="evenodd" d="M68.413 3.882l-.033.242c-.45 3.096-1.678 7.402-3.865 10.641-2.693 3.988-6.474 7.026-10.266 8.973-5.47 2.81-11.406 3.287-17.219-.457l-.256-.168c-3.055-2.03-5.377-3.013-8.578-2.24-3.202.775-4.77 3.091-6.166 5.24l-.064.091a1.499 1.499 0 01-.914.566l-6.066.915 2.187 2.757c.658.836 1.125 1.438 1.403 1.807l2.401 3.213c7.159 9.533 14.87 18.641 30.062 15.619l.515-.106c4.025-.864 7.377 1.56 11.578 5.127l.897.767c1.111.954 4.47 3.96 5.843 5.404l.448.478.414.452.247.274.427.49.267-.311c2.887-3.424 4.717-8.657 5.677-12.978a30.73 30.73 0 00.67-4.64l.011-.189c.025-.422.037-.79.041-1.098l.002-.229-.433.124c-5.014 1.382-10.643 1.481-16.13.807-1.326-.162 13.314-11.843 10.439-27.132-.655-3.484-1.053-8.139-2.22-11.305a36.35 36.35 0 00-1.128-2.73l-.191-.404z" fill="#fff"/><path fill-rule="evenodd" clip-rule="evenodd" d="M294.086 110.143l-12.496 5.962c-3.004 2.518-3.539 6.291-1.606 11.321.678 1.764 2.376 5.968 2.388 4.322.004-.514 11.614-7.982 13.826-7.227 2.044.698-1.592-5.488-2.604-8.328l.493-6.205.347-.615m-16.995 5.191c.828.006-3.878 2.177-3.666 6.246.212 4.07 3.335 11.589 2.56 11.879-.775.29-2.225-1.906-2.514-2.682-1.803-4.823-2.137-6.789-2.05-9.594.113-3.672 2.06-5.875 5.67-5.849z" fill="#E7EAEE"/><ellipse cx="298.277" cy="118.746" rx="3.237" ry="7.312" transform="rotate(.42 298.277 118.746)" fill="#E7EAEE"/><path fill-rule="evenodd" clip-rule="evenodd" d="M71.62 194.183c.094-12.688 1.544-18.194 16.733-25.007 31.117-12.312 31.12-12.796 90.725-35.339 15.763-5.93 48.795 8.796 63.25 2.832 9.636-3.975 18.642-6.914 26.608-10.869.732 5.025 5.637 13.558 7.377 15.032a122.212 122.212 0 00-27.038 8.851c-18.844 8.686-7.698 6.363-37.648 34.195-2.538 2.358-11.841 7.71-25.276 13.257 0 0-26.946-3.82-37.731-8.399-10.976-4.661-27.552-19.32-27.552-19.32s-19.55 12.551-30.777 18.174c-5.255 2.632-18.67 6.593-18.67 6.593z" fill="#fff"/><path fill-rule="evenodd" clip-rule="evenodd" d="M71.669 187.59c.022-2.978-.278-5.06.054-7.356 1.08-7.487 5.129-11.292 16.752-16.506 31.117-12.313 31.046-13.941 90.651-36.484 15.763-5.93 48.795 8.796 63.25 2.832 9.636-3.976 18.642-6.914 26.608-10.869.021.144-.855 6.996-.855 6.996s-19.669 10.203-32.646 12.302c-13.788 2.23-32.624-8.719-51.549-3.541-28.821 7.885-95.288 32.846-103.176 39.166-6.197 4.966-9.09 13.46-9.09 13.46zM56.16 2.46c-.509-.732-1.339-1.159-2.23-1.056a2.343 2.343 0 00-1.96 1.603l-.077.234c-.057.172-.125.369-.205.59a36.954 36.954 0 01-.83 2.09c-.926 2.146-2.062 4.287-3.414 6.276-2.916 4.291-6.414 7.268-10.498 8.395a1.199 1.199 0 00-.837 1.474c.176.638 10.11-3.8 13.318-8.521 1.445-2.126 2.65-4.397 3.632-6.674.297-.687.555-1.334.777-1.932l.107-.294c.087-.24.162-.457.225-.647.017-.136.032-.182.045-.137 6.833 4.75 4.048 16.39 4.707 16.451.63.059 1.19-.38 1.293-.994l.08-.629.022-.21c.455-4.574-.308-9.75-3.353-14.782-.253-.418-.52-.83-.802-1.236z" fill="#E7EAEE"/><path fill-rule="evenodd" clip-rule="evenodd" d="M70.46 2.53l.15.272.181.348c.11.214.233.463.367.743.464.973.932 2.073 1.378 3.286 1.258 3.414 2.127 7.095 2.405 10.926.377 5.198-.409 10.095-2.34 14.541l-.166.373c-1.568 3.473-3.84 6.65-6.779 9.492l-.291.278.246.013c4.2.208 8.359-.138 12.02-1.276a2.644 2.644 0 012.31.366 2.653 2.653 0 011.12 2.05l.007.254.004.337-.001.129c-.004.469-.021.995-.059 1.57a33.715 33.715 0 01-.734 5.096c-1.123 5.055-3.328 9.781-6.904 13.75a2.646 2.646 0 01-1.843.873l-.163.003a2.665 2.665 0 01-1.92-.87l-.354-.418-.174-.2-.369-.416-.404-.444a46.899 46.899 0 00-4.676-4.42c-4.206-3.444-8.273-5.402-11.76-5.218-5.703.3-10.423 0-14.794-1.262-5.651-1.63-10.075-4.78-12.981-9.765l-.163-.284c-1.504-2.668-3.731-5.745-6.362-8.95a111.94 111.94 0 00-2.38-2.804l-.325-.369a71.68 71.68 0 00-1.127-1.248 2.657 2.657 0 01-.588-2.634l.044-.124a2.649 2.649 0 011.982-1.663l4.866-.924.057-.082c1.756-2.458 4.254-4.533 7.558-5.352 3.446-.854 7.06-.063 10.687 2.276l.253.166c4.9 3.256 9.78 3.114 14.437.723 3.327-1.709 6.506-4.628 8.926-8.211 2.25-3.332 3.599-6.901 3.714-9.725A2.645 2.645 0 0170.46 2.53zm-2.047 1.352l-.033.242c-.45 3.096-1.678 7.402-3.865 10.642-2.693 3.987-6.474 7.025-10.266 8.972-5.47 2.81-11.406 3.287-17.219-.457l-.256-.168c-3.055-2.03-5.377-3.013-8.578-2.24-3.202.775-4.77 3.091-6.166 5.24l-.064.091a1.499 1.499 0 01-.914.566l-6.066.915 2.187 2.757c.658.836 1.125 1.438 1.403 1.807l2.401 3.213c7.159 9.533 14.87 18.641 30.062 15.62l.515-.107c4.025-.864 7.377 1.56 11.578 5.127l.897.767c1.111.954 4.47 3.96 5.843 5.404l.448.478.414.452.247.274.427.49.267-.311c2.887-3.424 4.717-8.657 5.677-12.978a30.73 30.73 0 00.67-4.64l.011-.189c.025-.422.037-.79.041-1.098l.002-.229-.433.124c-5.014 1.382-10.643 1.481-16.13.807-1.326-.162 13.314-11.843 10.439-27.131-.655-3.485-1.053-8.14-2.22-11.306a36.35 36.35 0 00-1.128-2.73l-.191-.404z" fill="#E7EAEE"/><path fill-rule="evenodd" clip-rule="evenodd" d="M30.222 30.585a2.1 2.1 0 002.114-2.083 2.1 2.1 0 00-2.083-2.113 2.1 2.1 0 00-2.113 2.082 2.1 2.1 0 002.082 2.114z" fill="#00160A"/><ellipse cx="31.979" cy="36.292" rx="3.297" ry="2.697" transform="rotate(.42 31.979 36.292)" fill="#FFB61D"/><ellipse cx="31.979" cy="36.292" rx="3.297" ry="2.697" transform="rotate(.42 31.979 36.292)" fill="#FFB61D"/><path fill-rule="evenodd" clip-rule="evenodd" d="M70.46 2.53l.15.272.181.348c.11.214.233.463.367.743.464.973.932 2.073 1.378 3.286 1.258 3.414 2.127 7.095 2.405 10.926.377 5.198-.409 10.095-2.34 14.541l-.166.373c-1.568 3.473-3.84 6.649-6.779 9.492l-.291.278.246.013c4.2.208 8.359-.138 12.02-1.276a2.643 2.643 0 012.31.366 2.654 2.654 0 011.12 2.05l.007.254.004.337-.001.129c-.004.469-.021.995-.059 1.57a33.701 33.701 0 01-.734 5.096c-1.123 5.055-3.328 9.781-6.904 13.75a2.646 2.646 0 01-1.843.873l-.163.002a2.665 2.665 0 01-1.92-.87l-.354-.417-.173-.2-.37-.416-.404-.444a48.41 48.41 0 00-4.676-4.42c-4.206-3.444-8.273-5.402-11.76-5.218-5.703.3-10.423 0-14.794-1.262-5.651-1.63-10.075-4.78-12.981-9.765l-.163-.284c-1.504-2.668-3.731-5.745-6.362-8.95a111.75 111.75 0 00-2.38-2.804l-.325-.369a71.553 71.553 0 00-1.127-1.248 2.657 2.657 0 01-.588-2.634l.044-.124a2.648 2.648 0 011.982-1.663l4.866-.924.057-.082c1.756-2.458 4.254-4.533 7.558-5.352 3.252-.806 6.653-.147 10.074 1.896 3.816-1.248 7.106-4.136 9.872-8.206 1.352-1.99 2.488-4.13 3.414-6.276.326-.755.602-1.457.83-2.09.08-.221.148-.418.205-.59l.076-.234a2.343 2.343 0 011.962-1.603c.89-.103 1.72.323 2.229 1.057.282.406.549.818.802 1.236 2.364 3.906 3.353 7.898 3.464 11.63.48-.599.94-1.222 1.375-1.866 2.25-3.332 3.599-6.901 3.714-9.725A2.645 2.645 0 0170.46 2.53zM52.875 21.672c-4.523 2.322-9.258 2.523-14.016-.451 3.229-1.465 8.414-4.507 10.568-7.677 1.445-2.125 2.65-4.396 3.632-6.673.297-.687.555-1.334.777-1.932l.107-.294c.087-.24.162-.457.225-.647.017-.136.032-.182.045-.137 4.542 3.157 4.834 9.359 4.713 13.18-1.85 1.945-3.92 3.536-6.05 4.63zm1.374 2.066a28.902 28.902 0 005.377-3.579c.131-.075.247-.174.341-.291a26.273 26.273 0 004.548-5.103c2.187-3.239 3.415-7.545 3.865-10.64l.033-.243.19.405c.38.817.762 1.73 1.13 2.729.811 2.203 1.25 5.128 1.664 7.877a97.45 97.45 0 00.555 3.428c2.204 11.718-5.882 21.317-9.182 25.234-1.006 1.194-1.567 1.86-1.258 1.898 5.488.674 11.117.575 16.13-.807l.434-.124-.002.229c-.004.308-.016.676-.041 1.098l-.012.188a30.719 30.719 0 01-.67 4.641c-.959 4.321-2.79 9.554-5.676 12.978l-.267.31-.427-.489c-.078-.087-.16-.18-.247-.275l-.414-.451-.448-.478c-1.373-1.445-4.732-4.45-5.843-5.404l-.897-.767c-4.201-3.567-7.553-5.991-11.578-5.127l-.515.106c-15.191 3.022-22.903-6.086-30.062-15.619l-2.401-3.213c-.278-.369-.745-.971-1.403-1.807l-2.186-2.757 6.065-.915c.366-.07.69-.272.914-.566l.064-.09c1.395-2.15 2.964-4.466 6.166-5.24 3.201-.774 5.523.21 8.578 2.24l.256.167c5.813 3.744 11.748 3.266 17.219.457zm239.218 84.515c1.182-.564 3.287.562 2.048 2.341-1.876 2.692.14 8.992 1.368 12.828.568 1.775.967 3.023.735 3.143a1.5 1.5 0 01-2.018-.649c-2.047-3.987-3.215-7.15-3.495-9.549a17.536 17.536 0 01-.072-3.461l.012-.129-9.63 4.594-.123.111c-2.181 2.016-3.151 4.368-1.597 8.559l.092.243c1.689 4.395 4.579 7.559 7.611 7.45l.237-.01c6.736-.086 10.777-2.083 12.232-4.54 1.829-3.09 2.346-6.668-.973-13.66-.355-.748-2.166-5.913.43-3.234 2.595 2.679 6.154 14.459 3.767 18.491-1.994 3.367-7.057 5.024-13.982 5.303a1.5 1.5 0 01.017.552c-.688 4.445-2.74 7.23-6.143 8.015-2.601.6-5.387-.241-7.929-2.237a120.806 120.806 0 00-26.152 8.63l-1.25.581c-4.305 2.017-6.776 3.373-8.582 4.695a19.026 19.026 0 00-2.879 2.597l-.152.17c-.458.524-1.457 1.726-2.594 3.094-1.513 1.82-3.269 3.933-4.316 5.128l-.506.573c-4.256 4.805-9.615 10.253-16.977 17.093l-.206.187c-2.759 2.429-10.073 6.517-19.187 10.626 25.074-.707 43.22-10.142 54.611-28.321a1.499 1.499 0 012.296-.296c19.225 18.069 41.592 26.53 67.187 25.422 25.664-1.11 44.538-7.64 56.682-19.522a1.498 1.498 0 112.096 2.142c-12.739 12.465-39.658 21.691-65.999 22.831-25.616 1.108-40.818-9.555-60.227-27.04l-.474-.43-.173.261c-12.511 18.66-39.492 32.139-66.32 32.136l-.841-.003c-27.439-.202-43.166-13.604-61.544-31.899l-.144-.144-.066.056-1.627 1.349c-17.453 14.47-30.476 25.267-49.966 27.906l-.622.083c-21.984 4.28-55.19-7.795-60.264-13.632-4.649-5.348.795-2.005 2.289-1.087.137.084.24.147.3.182 14.468 8.425 31.197 11.716 51.316 9.123a95.325 95.325 0 008.28-1.442l-.03-.296c-.816-8.341-.795-11.984.5-16.156 1.762-5.675 5.97-9.966 13.507-13.347l2.075-.899c9.308-4.021 16.7-7.037 24.365-9.964l.562-.214c.859-.327 1.73-.656 2.619-.99l.871-.325c.315-.108 4.422-1.702 10.666-4.124 14.399-5.587 40.161-15.581 56.966-21.937 3.635-1.368 8.028-1.799 13.409-1.481l.464.029c4.032.267 7.995.843 14.49 2.016l5.706 1.043c6.372 1.151 9.461 1.609 13.068 1.893 1.134.089 2.212.197 3.236.3 3.793.381 6.846.687 9.287-.32 2.171-.896 4.3-1.761 6.386-2.608 6.822-2.772 13.186-5.357 19.094-8.24.423-2.615 1.469-4.541 3.095-5.802 2.508-1.945 6.038-1.952 9.091-.739a1.498 1.498 0 01.839 1.946c-.099.249-.721.129-1.602-.04-1.843-.354-4.815-.924-6.491 1.201-1.865 2.365-2.505 6.005-.922 13.192 1.147 5.208 8.769 14.105 12.016 14.129 3.619.027 4.492-3.481 4.986-5.47l.031-.125c-4.305.08-7.556-2.668-9.641-7.912l-.101-.26c-2.143-5.575-1.511-10.028 2.042-13.006.064-.054.133-.103.206-.145l.111-.059 12.523-6.5zm-20.158 31.432c-.151-.185-.3-.374-.447-.568a5.226 5.226 0 01-.154-.177 63.846 63.846 0 00-.416-.509c-1.151-1.404-2.485-3.03-3.521-5.368l-.15-.341c-1.663-3.799-1.833-8.054-1.704-11.56l.019-.407-.09.044c-7.009 3.405-14.631 6.817-22.866 10.235l-1.033.427c-3.526 1.455-7.924 2.469-13.484 2.068l-.43-.032c-3.798-.299-6.992-.777-13.687-1.99l-4.998-.914c-14.089-2.546-21.146-2.979-26.98-.846 0 0-86.992 31.996-98.138 36.659-6.78 3.041-9.094 5.933-11.923 10.625-1.463 2.427-1.366 9.153-1.3 13.824l.001.002v.008c.011.78.022 1.503.024 2.138 16.433-3.982 32.264-12.395 47.502-25.257a1.498 1.498 0 012.039.099 100.022 100.022 0 003.71 3.617l62.664-25.641c.172-.07.349-.106.524-.111a8.833 8.833 0 011.527-.539c5.458-1.409 9.791.98 12.754 6.801l5.474-3.932a1.499 1.499 0 012.284.708c4.87 13.466 3.355 22.657-4.86 27.037-8.285 4.417-15.434.672-20.946-10.56a1.499 1.499 0 01.232-1.665c-1.294-5.428-1.509-9.746-.579-12.866l-54.916 24.402c8.136 6.705 17.086 11.782 26.857 15.234.226-.212.47-.395.709-.524 8.285-4.459 28.653-9.589 33.684-10.857.436-.109.756-.19.944-.239 2.361-.614-.069 1.57-.783 1.893l-.091.038-29.755 11.208c8.808 2.579 18.25 3.905 28.331 3.979.573.004 1.143.004 1.709-.001l.667-.426c6.375-4.078 17.038-10.897 18.893-12.621l.866-.807c6.152-5.883 10.741-11.536 14.746-16.471 4.394-5.415 8.087-9.964 12.372-13.002 3.333-2.363 4.538-2.9 7.371-4.161.758-.337 1.632-.726 2.695-1.216 7.514-3.464 16.033-5.439 24.03-7.293l.001-.001.622-.144zm-82.563 8.388c4.325-1.116 7.543.935 9.966 6.614l.075.386c.877 4.706.465 7.334-.788 8.025-1.185.653-2.342-.002-3.827-2.726a1.499 1.499 0 00-1.859-.687l-.011.005-6.598 2.547-.159-.724c-1.742-8.179-.536-12.476 3.201-13.44zm-73.024 67.536c.699-.443 5.52-2.752 1.21 1.622-4.311 4.374-37.765 22.819-55.757 23.722-17.341.87-32.678-6.482-45.999-16.055l-.441-.32-.09.113a21.45 21.45 0 01-1.842 2.033l-.271.256c-1.142 1.056-3.114 2.247-5.96 3.627-.745.361-3.37.679-2.003-.695 1.367-1.373 4.351-3.344 6.089-4.473 1.136-.738 1.499-1.608 1.86-2.472.19-.458.38-.914.685-1.347a1.498 1.498 0 012.134-.331c13.127 9.99 28.509 15.377 45.876 14.506 17.439-.875 35.496-8.15 54.509-20.186zm102.456 10.307c.612-.557.641-4.561.029-4.004-6.779 6.163-20.915 11.524-38.316 12.397-17.423.875-31.096-1.964-41.045-8.465-.693-.453-4.13-1.662-2.074.434 2.056 2.097 25.253 13.127 43.26 12.223l.54-.028c17.744-.952 30.285-5.901 37.606-12.557zm-11.752-73.997l-.088-.27-4.536 3.259.08.466c.868 5.313.224 8.776-2.304 10.273l-.132.076c-2.634 1.451-5.095.394-7.137-2.643l-.089-.135-6.085 2.405.138.256c4.576 8.402 9.699 10.767 15.771 7.637l.196-.103c6.098-3.251 7.644-9.967 4.391-20.567l-.205-.654zM32.336 28.502a2.1 2.1 0 01-2.114 2.082 2.1 2.1 0 01-2.082-2.113 2.1 2.1 0 012.113-2.082 2.1 2.1 0 012.083 2.113z" fill="#00160A"/></svg>