<svg width="512" height="370" fill="none" xmlns="http://www.w3.org/2000/svg"><path fill-rule="evenodd" clip-rule="evenodd" d="M220.336 35.017C191.839 37.505 16.1 213.704 2.833 284.576c-13.265 70.874 72.469 95.929 141.324 79.957 68.854-15.976 109.773-74.293 216.7-16.168 64.537 35.084 173.482-2.559 146.008-98.088-27.471-95.529-230.095-220.192-286.529-215.26z" fill="#FFD600" fill-opacity=".57"/><path fill-rule="evenodd" clip-rule="evenodd" d="M353.244 312.274c8.453-2.523 22.188-6.527 30.619-8.481 12.851-2.979 10.487-15.463-2.641-17.79s-54.565-3.426-77.088-3.938c-6.309.27-11.158-.997-25.348-1.942-13.045-.869-28.114-15.968-39.944-41.568 0 0-23.085 5.584-51.577-2.435l-4.398-1.782s1.995 3.057 1.116 7.092c0 0-.536-8.11-3.579-5.877 0 0 .597 9.572.246 12.046 0 0-1.453-12.854-2.99-11.688 0 0 .086 5.702-1.019 8.849 0 0-.159-6.283-2.503-8.608 0 0-1.713 8.954-1.224 14.052 0 0-2.308-9.649-2.1-12.007 0 0-1.4 4.488-1.307 8.956 0 0-.777-1.135-1.748-7.338 0 0-.954-.608-.779 5.984.177 6.595-.56 8.061-1.011 2.979-.452-5.08-1.998-6.274-2.94-6.08-3.429 3.904-12.103 10.327-48.032 2.026 0 0-6.034-.511-24.02 6.138 0 0 1.418.491-19.545 3.571 0 0-9.699 2.444 3.983 8.071 0 0 10.248 2.85 24.897 3.121 14.648.269 26.186 2.561 32.163 15.174 5.978 12.615 5.748 24.39 25.108 28.877 0 0-22.603-1.096 3.479 26.148 0 0-10.944-7.059-15.778-8.296-4.836-1.238-15.349-9.877-18.456-21.649-3.107-11.773-7.017-29.142-16.313-33.836-9.293-4.694-29.285 7.044-56.533-13.882-2.353-1.235 24.391-9.897 40.046-11.994 0 0 13.419-2.504 19.291-5.757 0 0 5.748-3.29 17.895-2.142 0 0 2.446 1.223 1.908-5.222 0 0 .817-4.559-3.538-4.482l-27.873-.314s-5.321.388-5.768-6.982l-.291-3.221s-.892-2.992 2.28-8.24c3.174-5.248 41.666-46.136 41.666-46.136s4.513-3.498 7.764-1.912c3.251 1.586 2.974 3.153 2.122 9.502-.853 6.351-3.563 38.777-3.563 38.777s-.715 4.025 5.388 3.954c6.101-.07 8.751-.489 8.746 3.814-.004 4.303 1.839 11.494-3.993 11.912-5.832.417-10.078-2.904-9.268 3.803 0 0 1.551 4.861-1.415 7.485 0 0 11.13.059 18.372-1.046 0 0 9.2-9.736 16.108-8.754 0 0 6.171 3.16 5.982.613 0 0-1.263-2.571-1.427-4.92 0 0-2.418-30.795-2.324-39.428 0 0 .165-14.615.951-25.326.785-10.709 5.589-12.416 12.834-13.293 7.246-.877 26.199-2.983 38.099.569 11.898 3.55 8.642 11.238 8.762 15.166.12 3.928 1.017 40.212-.005 57.699 0 0-.357 3.004-.956 8.37s2.554 21.536 11.875 23.095c0 0 12.762-.842 15.566-3.875 0 0 30.207-35.247 42.711-47.907 0 0 7.96-4.649 9.255-.159 0 0-.946 15.443-1.397 23.671l-2.03 21.408s-1.636 5.344 5.718 5.801c0 0 8.582-3.185 8.772 4.809 0 0 .328 9.597-1.503 10.092-1.832.494-9.146-.104-9.146-.104s-3.056-1.072-2.952 1.832c.105 2.904-.145 8.894-.145 8.894s-3.647 1.335 17.239.982c20.888-.353 38.75 2.398 38.561 2.566-.188.167 31.293-1 33.383 11.504 2.092 12.505-13.038 11.022-13.983 21.202-.946 10.181 1.702 10.053 22.169 20.153 0 0-24.532-.131-34.139-16.547-4.954-8.466-19.37-7.68-28.485-5.799a1047.184 1047.184 0 00-7.414 2.241c1.034-.581 3.81-1.497 7.414-2.241zm-49.178-82.613s-.238-4.594-2.887-.723c-2.647 3.873-12.47 18.626-12.47 18.626s-1.937 1.806.197 2.131c2.133.327 10.16 1.436 12.426.71 2.265-.725 1.485-1.655 2.023-3.682.54-2.027.711-17.062.711-17.062zm-77.952-56.403a5.317 5.317 0 00-5.315-5.318H206.28a5.317 5.317 0 00-5.315 5.318v40.245a5.317 5.317 0 005.315 5.318h14.519a5.317 5.317 0 005.315-5.318v-40.245zm-96.066 16.18l-13.396 20.621c1.235 2.049 6.501 2.069 11.902 2.074.57 0 1.995-.366 2.542-.354l1.099-21.847c-.568-.884-1.271-1.113-2.147-.494z" fill="#fff"/><path fill-rule="evenodd" clip-rule="evenodd" d="M335.75 133.676c-2.508-2.081-3.351-4.559-1.783-6.521.775-.967 2.331-1.485 3.63-1.788.921-.214 2.365 1.74 2.483 2.939.013.128-.111.263-.142.401-.434 1.966 0 2.8 1.717 3.612.781.369 1.655.765 2.17 1.404.359.447.214 1.326.245 2.015.071 1.472.108 2.945.164 4.418.009.214.04.426.062.639-.242-.02-.651.035-.701-.074-.368-.806-1.491-1.251-.796-2.588.431-.828.108-2.063.059-3.112-.013-.244-.298-.475-.456-.713-.152.248-.422.489-.434.743a288.865 288.865 0 00-.282 6.579c-.003.106.214.212.313.33.896 1.055 2.25 1.431 3.143.702 1.051-.86 1.116-2.005.555-3.221-.49-1.061-1.072-2.127-.344-3.328.093-.158.099-.371.146-.558.071.166.124.347.223.498 1.305 2.023 1.612 4.214 1.559 6.62-.056 2.598-1.243 4.455-2.855 6.244-.177.195-.121.804.053 1.078 1.026 1.619 1.417 3.407 1.491 5.277.13 3.179.214 6.359.319 9.539.025.777 1.355 1.677-.276 2.362-.173.072.158 1.321.236 2.026.037.32.028.645.04.968.034 1.156 1.057.711 1.625 1.004.179-.388.57-.818.502-1.155-.165-.82-.54-1.597-.831-2.391.648.484 1.237 1.11 1.959 1.427 2.402 1.052 4.851 1.993 7.207 3.053-.654.182-1.233.383-1.807.368-1.041-.029-2.083-.286-3.122-.269-2.334.038-4.662.26-6.993.267-1.971.006-3.94-.224-5.911-.268-.778-.017-1.572.314-2.347.267-2.359-.142-4.715-.38-7.071-.604-.632-.06-1.255-.233-1.884-.298-1.969-.203-3.94-.402-5.912-.556-.769-.06-1.544.006-2.316.014.174.53.348 1.059.515 1.59.009.029-.043.075-.037.109.229 1.562.49 3.122.685 4.688.124 1.027.71 1.404 1.649 1.284 2.657-.34 5.304-.755 7.967-1.062 1.956-.225 3.927-.444 5.893-.443 1.379 0 2.752.393 4.132.576 1.72.227 3.447.391 5.164.636 1.057.152 2.096.437 3.15.604 1.847.292 3.698.611 5.558.779 1.06.095 2.346.255 3.174-.229 1.094-.64 1.15-1.967.536-3.193-.121-.248-.149-.723.003-.904 1.346-1.601.124-2.409-.948-3.278 3.252.411 6.376 3.206 7.154 6.38.031.131.295.293.27.338-1.147 2.019.825 1.927 1.671 2.169 2.436.695 4.932 1.225 7.433 1.639 1.668.276 3.389.246 5.087.341 1.972.111 3.946.324 5.915.278 1.727-.04 3.441-.466 5.17-.559 1.941-.104 3.891.003 5.838-.042.784-.018 1.565-.245 2.352-.286 2.471-.13 4.948-.168 7.412-.341 1.215-.086 2.409-.526 3.621-.566 1.401-.046 2.805.225 4.21.264 2.25.063 4.476-.063 6.757.203 3.063.357 6.076.818 9.058 1.55 4.957 1.217 9.507 3.319 13.835 6.038a57.907 57.907 0 0110.76 8.75c5.452 5.621 10.201 11.837 14.113 18.651 3.141 5.468 6.216 10.974 9.306 16.474 3.432 6.105 6.758 12.275 8.698 19.051.989 3.441 1.736 6.959 2.446 10.475 1.141 5.655 2.043 11.365 4.514 16.657.211.45.248.981.369 1.475-.279-.413-.611-.801-.828-1.245-2.805-5.739-4.557-11.798-5.977-18.027-1.267-5.562-2.991-11.052-4.947-16.415-1.851-5.065-4.079-10.015-6.491-14.844-3.32-6.648-7.173-13.021-11.811-18.843-3.506-4.397-7.222-8.633-10.942-12.85-4.418-5.006-9.452-9.293-15.652-11.911-2.988-1.263-6.128-2.43-9.312-2.906-4.619-.691-9.337-.794-14.017-.987-1.557-.063-3.131.464-4.706.548-1.941.105-3.89.004-5.834.045-.632.014-1.255.223-1.888.291-2.049.222-4.098.469-6.15.609-1.355.093-2.731-.083-4.079.037-3.506.312-6.975.27-10.475-.281-2.39-.377-4.864-.18-7.278-.453-1.755-.198-3.457-.84-5.208-1.11-2.145-.33-4.325-.418-6.473-.726-1.503-.216-2.973-.686-4.476-.935-1.683-.278-3.391-.435-5.087-.645-.778-.096-1.562-.158-2.334-.296-1.454-.261-2.895-.776-4.349-.813-4.374-.109-8.748-.075-13.122-.026-2.579.029-5.152.177-7.728.306-.89.045-1.773.258-2.663.291-3.484.129-6.975.297-10.462.287-1.637-.005-3.27-.393-4.91-.584-1.984-.23-4.015-.245-5.946-.7-2.377-.559-4.671-1.473-6.999-2.24-9.548-3.145-19.093-6.302-28.643-9.433-4.551-1.492-9.119-2.934-13.678-4.402-.145-.047-.274-.141-.411-.213.142-.031.291-.109.425-.087 1.225.195 2.469.323 3.667.63 3.28.837 6.582 1.622 9.8 2.662 6.434 2.08 12.829 4.284 19.211 6.514 1.212.423 1.442.135 1.591-1.043.288-2.262.79-4.495 1.187-6.744.037-.231-.056-.485-.081-.729-.099-.927.298-1.258 1.209-.985 2.942.88 5.887 1.753 8.819 2.664.586.183.828.273.949-.534.567-3.785 1.178-7.566 1.891-11.327.462-2.457 1.196-4.863 1.671-7.319.366-1.878.443-3.81.778-5.694.316-1.778.84-3.518 1.215-5.287.542-2.577 1.339-5.15 1.463-7.751.136-2.857.189-5.93-2.579-7.952-.164-.12-.27-.338-.446-.426-.49-.246-.999-.448-1.501-.668.633-.22 1.256-.476 1.9-.648.658-.176 1.33-.339 2.006-.383 1.175-.075.865-.64.354-1.11-.689-.629-1.495-1.125-2.226-1.709-.217-.173-.354-.448-.524-.677.226-.155.443-.421.685-.446.939-.096 1.888-.074 2.821-.188.297-.037.7-.306.806-.569.397-.975.691-1.991 1.023-2.991.688.733 1.289 1.582 2.086 2.17.958.709 2.074 1.202 3.134 1.771.164.089.375.086.567.125-.164.168-.325.34-.493.502-.753.72-1.54 1.405-2.25 2.164-.465.498-.186.831.387.614 2.409-.911 4.439.603 6.65.954.133.021.257.103.387.156-.133.05-.266.113-.403.148-2.024.521-4.051 1.034-6.076 1.556-1.562.403-1.509.393-.967 2.244a480.654 480.654 0 013.097 10.979c.648 2.416 1.265 4.848 1.724 7.306.468 2.506.778 5.046 1.063 7.583.195 1.724.486 3.503.254 5.191-.242 1.765.254 3.086 1.265 4.382 1.822 2.337 4.15 3.519 7.151 3.806 3.205.306 6.259-.188 9.303-.967 1.767-.453 1.934-1.114 1.1-3.27-1.261-3.25-.021-8.289 3.026-9.975 1.593-.882 2.501-1.82 3.047-3.402.124-.353.533-.598.766-.926.13-.182.279-.584.223-.626-.282-.212-.657-.513-.946-.464-1.869.323-2.681 1.404-2.548 3.238.016.195-.043.394-.065.591-.111-.158-.204-.329-.331-.471-1.805-2.001-2.084-4.448-1.963-6.981.01-.179.71-.52 1.011-.45a9.385 9.385 0 012.272.857c1.77.944 1.268-.509 1.228-1.212a172.144 172.144 0 00-.62-7.455c-.041-.39-.385-.748-.586-1.12-.109.312-.264.617-.313.938-.264 1.69-.493 3.385-.76 5.074-.034.225-.207.428-.319.641-.071-.167-.112-.364-.226-.495-.27-.312-.58-.594-.794-.965.233-.322.45-.546.53-.813.673-2.218.211-4.337-.607-6.418-.072-.182-.149-.361-.224-.542-.214.108-.542.167-.613.335-.18.425-.301.893-.348 1.354-.192 1.969-.058 3.896.875 5.695zm-30.069-4.813c-.106.527-.351 1.071-.285 1.577.266 2.116-.338 4.087-.977 6.026-.921 2.796-.381 4.988 2.142 6.674.939.628 1.696 1.532 2.526 2.323.31.297.586.629.878.945.223-.486.66-.986.632-1.455-.068-1.028-.353-2.044-.58-3.057-.663-2.949-1.398-5.882-1.983-8.846-.23-1.169-.137-2.402-.177-3.606-.006-.134.084-.272.13-.408.059.12.133.234.171.36.703 2.328 1.528 4.629 2.07 6.995.475 2.079.673 4.226.924 6.351.195 1.68.285 3.373.422 5.06.012.156.074.437.034.452-2.595.976-4.638 2.718-6.65 4.565-1.066.981-.765 1.615.066 2.409 1.689 1.617 3.515 2.946 5.917 3.327.515.081 1.194.52 1.358.96.121.318-.45.942-.787 1.367-.242.301-.605.509-.924.741-1.59 1.15-3.1 2.44-4.799 3.398-1.655.936-.886 1.64-.025 2.401.382.337.915.661 1.398.695 2.363.168 4.74.164 7.099.37 1.187.104 1.153-.561 1.014-1.264-.62-3.099-1.302-6.185-1.953-9.278-.35-1.685-.704-3.37-1.001-5.065-.047-.259.198-.569.307-.855.062.216.13.43.179.647.933 3.907 1.851 7.818 2.815 11.717.065.253.477.419.725.626.062-.165.193-.34.171-.493a147.702 147.702 0 00-.651-4.023c-.388-2.148-.831-4.287-1.19-6.439-.45-2.703-.828-5.417-1.259-8.123a149.347 149.347 0 00-.927-5.362c-.561-2.847-1.094-5.706-1.798-8.519-.604-2.419-1.475-4.769-2.151-7.171-.896-3.18-2.341-6.329-.732-9.723.084-.172-.344-.815-.623-.883-.567-.139-1.209-.121-1.791-.012-.704.131-.794.856-.369 1.149 1.351.928.406 1.846-.143 2.339-.781.703-.701 1.294-.453 2.105.868 2.83 1.07 5.761 1.25 9.003zm18.754 41.146c.629.104 1.252.252 1.885.302 1.643.13 3.292.207 4.938.323 1.249.088 2.495.231 3.745.301 2.247.125 4.501.152 6.742.338 1.547.128 3.372-.703 3.565-2.042.167-1.157 0-2.373-.109-3.555-.077-.821-.415-1.625-.44-2.443-.065-2.103.015-4.21-.037-6.315-.034-1.425-.115-2.859-.329-4.266-.102-.66-.545-1.273-.865-1.892-.117-.229-.322-.412-.486-.616-.056.282-.165.565-.158.846.089 3.113.22 6.226.272 9.341.007.324-.387.923-.632.943-3.233.268-6.47.484-9.712.648-1.51.077-3.032-.026-4.544.023-1.941.063-3.878.19-5.816.303-1.575.093-3.152.177-4.724.346-.183.02-.49.591-.44.846.319 1.581.669 3.16 1.119 4.709.288.992.874 1.567 2.123 1.474 1.181-.088 2.393.241 3.903.386zm-16.429 8.385c1.041.104 2.08.234 3.121.304 1.832.125 3.674.145 5.499.337 1.727.181 2.852-.593 2.645-2.299-.183-1.511-1.293-3.055-1.073-4.436.344-2.145-.983-1.612-1.981-1.823-.149-.031-.291-.12-.44-.129-1.882-.119-3.763-.239-5.645-.321-.204-.009-.418.222-.626.341.112.183.195.394.338.544.719.742 1.438 1.486 2.191 2.194a192.925 192.925 0 003.596 3.289c.211.189.493.299.741.445.053-.133.158-.269.149-.397-.09-1.217-.22-2.431-.285-3.65-.013-.257.207-.526.319-.79.183.096.508.17.527.292.251 1.661.527 3.324.632 4.997.022.317-.31 1.206-1.224.635-.924-.578-2.089-.815-2.933-1.478-2.207-1.738-4.271-3.654-6.435-5.446-1.934-1.601-3.986-3.052-6.696-2.342-.592.156-1.32.748-1.519 1.305-.74 2.096-1.209 4.289-1.946 6.387-.295.846.186 1.035.641 1.083 3.361.359 6.727.647 10.404.958zm29.139-29.501c-1.358.292-1.873 1.113-1.721 2.499.171 1.57.217 3.155.326 4.732.096 1.39.192 2.78.328 4.165.013.148.295.393.443.385 1.457-.072 2.917-.32 4.362-.254 1.448.065 1.451-.726 1.376-1.728-.108-1.474-.22-2.948-.307-4.424-.031-.567.174-1.218-.037-1.692-.691-1.543-.152-2.773.769-3.95.862-1.096 1.767-2.158 2.607-3.27.133-.175.099-.738.003-.775-.369-.147-.824-.277-1.196-.193-.899.205-1.891.367-2.598.886-.338.249-.118 1.267-.143 1.937-.009.182.087.414.006.541-.83 1.305-2.39 1.749-4.218 1.141zm-47.119 16.148c-.703-.291-1.388-.719-2.117-.821-.446-.063-1.351.327-1.386.597-.223 1.799-.372 3.622-.344 5.434.031 2.018 1.253 3.543 2.663 3.813 1.001.191 1.965.552 2.954.82.868.235 2.04.89 2.545.555.648-.43.84-1.644 1.088-2.559.292-1.077.242-2.281.685-3.276.71-1.593.571-2.094-1.14-2.712-1.563-.565-3.094-1.23-4.948-1.851zm11.16-10.869c.257-1.141.595-2.27.756-3.425.273-1.972.4-3.963.648-5.938.143-1.128.471-2.235.574-3.364.037-.396-.344-.83-.534-1.247-.275.31-.598.592-.809.942-.139.235-.13.565-.17.855-.109.8-.174 1.608-.319 2.401-.286 1.563-.648 3.113-.912 4.68-.304 1.796-.505 3.61-.793 5.409-.335 2.075-.741 4.139-1.07 6.215a121.064 121.064 0 00-.651 4.843c-.046.416.059.85.093 1.276.288-.341.738-.642.831-1.029.322-1.361.477-2.761.778-4.127.546-2.453 1.15-4.891 1.578-7.491zm-.62 7.453c-.155.988-.326 1.974-.456 2.965-.031.233.068.483.109.725.214-.085.446-.138.635-.262 1.829-1.198 3.59-2.525 5.502-3.569 1.067-.581.955-1.13.351-1.746-1.212-1.23-2.511-2.377-3.819-3.502-.152-.13-.853.031-.893.172-.468 1.675-.862 3.371-1.429 5.217zm2.635-16.614c0 1.427.006 2.854-.003 4.281-.007.807.505 1.134 1.221.695a57.786 57.786 0 002.787-1.853c.911-.636.837-1.294-.022-1.928-.79-.581-1.655-1.087-2.346-1.769-.769-.759-1.265-.929-1.637.574zm57.348 30.122c-.955-.907-1.07-.94-1.262-.26-.536 1.896-.645 3.852.459 5.559.269.42 1.361.413 2.067.385.214-.009.531-.738.571-1.16.17-1.719-.279-3.238-1.835-4.524zm-63.083-4.503c.36-.773.744-1.537 1.054-2.33.056-.148-.146-.451-.307-.604-.053-.051-.378.1-.515.23-.774.743-.762 1.622-.232 2.704zm18.754-3.881l.385.312c.093-.342.182-.684.276-1.026-.222.134-.443.269-.661.714zm1.008 1.863c-.074-.259-.148-.517-.218-.776l-.442.116c.161.272.323.544.66.66z" fill="#00160A"/><path fill-rule="evenodd" clip-rule="evenodd" d="M208.033 5.424c1.55-1.564 3.099-3.13 4.659-4.684.035-.036.272.032.29.092.997 3.173 3.986 2.896 6.353 3.64 1.368.429 2.845.518 4.2.977 3.121 1.06 6.252 2.125 9.268 3.443 1.58.691 2.843 2.09 4.401 2.861 1.638.81 3.345 1.222 5.362.919 2.317-.348 4.754.188 7.14.19 6.95.001 13.45 1.843 19.723 4.675 2.573 1.161 4.159 3.206 3.818 5.974-.149 1.205-1.599 2.38-2.679 3.312-2.895 2.496-6.593 3.32-10.127 4.322-3.426.97-6.999 1.31-10.581 1.296-.36-.002-.729.035-1.075-.035-.169-.034-.296-.273-.442-.42.176-.055.349-.129.53-.163 4.358-.832 8.718-1.655 13.075-2.492.632-.121 1.25-.313 1.879-.454 2.331-.523 2.743-3.277 1.606-4.853-.958-1.33-2.286-2.17-4.135-2.302-2.057-.147-4.064-.89-6.12-1.177-2.136-.298-4.311-.307-6.458-.54-2.273-.246-4.526-.697-6.802-.88-1.233-.1-2.496.271-3.743.254-3.128-.044-6.254-.277-9.379-.258-1.992.011-3.978.397-5.972.504-1.933.102-3.875.039-5.812.097-.631.02-1.254.24-1.887.29-2.808.225-5.623.365-8.425.647-2.189.22-4.356.653-6.544.902-3.14.357-6.295.59-9.433.96-1.881.221-3.741.616-5.613.911-1.428.225-2.877.34-4.287.642-2.425.52-4.831 1.133-7.237 1.736-1.697.425-3.397.853-5.068 1.37-1.045.322-2.043.802-3.045 1.248-.056.024-.019.538.075.575 1.859.755 3.708 1.542 5.611 2.169 1.088.358 2.261.484 3.407.638 1.804.244 3.613.518 5.428.606 2.049.1 4.107.019 6.16-.02.153-.003.447-.32.429-.457-.333-2.438-.02-3.16 2.546-3.808 4.231-1.07 8.518-1.922 12.791-2.823 2.039-.43 4.088-.84 6.153-1.104 1.447-.185 2.929-.079 4.393-.154 2.013-.104 4.053-.088 6.029-.432 2.335-.407 4.499.1 6.673.722.302.086.478.613.712.936-.324.008-.649.022-.974.022-3.272.001-6.545-.038-9.817.014-2.422.038-4.845.144-7.261.315-1.643.116-3.297.292-4.907.627-3.652.76-7.284 1.612-10.914 2.472-1.306.31-2.566.815-3.875 1.11-.902.204-1.153.33-.367 1.115 3.953 3.952 8.724 6.352 14.164 7.341 1.735.316 3.578-.004 5.365.086.465.024.955.443 1.345.782.365.318.536.9.929 1.132.443.26 1.039.261 1.568.376.022-.494.142-1.008.045-1.476-.171-.821.029-1.288.845-1.609 3.66-1.44 7.438-1.813 11.259-1.032.799.163 1.411 1.247 2.107 1.91.109.105.293.23.29.339-.031.853.336 1.232 1.291 1.084 5.771-.894 11.093-2.835 15.408-6.943 1.43-1.362 2.702-2.89 4.052-4.338.163-.173.363-.313.546-.468.002.28.085.59-.005.836-1.201 3.265-3.592 5.437-6.481 7.212-3.194 1.964-6.658 3.17-10.274 4.024-2.054.484-4.082 1.248-6.161 1.424-3.055.259-6.147.2-9.218.099-2.858-.094-5.817-.01-8.538-.735-4.744-1.265-9.424-2.817-13.861-5.068-1.947-.989-4.251-1.378-6.441-1.753-2.517-.432-5.097-.82-7.634-.74-4.145.134-8.115-.514-11.78-2.31-1.781-.873-3.522-2.298-4.654-3.914-1.454-2.076-.732-3.298 1.874-4.96 1.458-.931 3.238-1.43 4.936-1.891 3.049-.827 6.135-1.523 9.225-2.186 1.899-.407 3.828-.696 5.755-.953 1.328-.178 2.7-.086 4.006-.35.86-.173 1.77-.614 2.425-1.198 1.58-1.409 2.845-3.233 4.566-4.404 2.037-1.386 4.387-2.337 6.663-3.335 1.701-.745 3.501-1.267 5.334-1.81.734 1.272 1.831.85 2.787.758.964-.093 1.907-.44 2.87-.502 1.403-.09 2.817.015 4.224-.036a18.714 18.714 0 002.856-.324c.356-.068.655-.434.98-.664-.311-.08-.618-.182-.933-.237-.676-.118-1.366-.342-2.033-.292-2.848.215-5.688.522-8.533.77-.293.026-.6-.11-.901-.172zm28.674 12.422c.785-.104 1.58-.35 2.351-.285 2.994.248 5.978.611 8.969.9 2.196.213 4.41.277 6.59.59 2.147.307 4.311.68 6.377 1.318 2.964.915 5.726 2.318 6.823 5.527.401 1.172.841 1.028 1.721.7 2.143-.803 2.502-4.203 1.399-6.123-1.385-2.41-3.877-3.148-6.28-3.84-4.759-1.368-9.587-2.298-14.596-2.247-3.081.032-6.164-.467-9.251-.552-3.786-.104-7.577-.064-11.366-.012a191.39 191.39 0 00-8.602.314c-2.159.126-4.308.4-6.462.604-2.62.249-5.245.452-7.858.752-2.749.315-5.487.725-8.23 1.087a78.93 78.93 0 01-2.537.3c-1.799.178-3.612.263-5.397.534-1.61.244-3.18.752-4.787 1.023-2.142.36-4.316.535-6.454.914-3.276.581-6.547 1.203-9.793 1.934-2.287.515-4.491 1.276-6.15 3.125-.852.95-.995 1.856.012 2.659.819.653 1.696 1.616 2.806.187.528-.68 1.306-1.336 2.103-1.6 1.98-.656 4.031-1.1 6.062-1.593 1.745-.424 3.486-.89 5.255-1.176 2.426-.39 4.882-.584 7.312-.945 1.696-.251 3.36-.731 5.059-.944 1.854-.232 3.744-.176 5.595-.425 2.059-.277 4.076-.886 6.138-1.113 2.367-.26 4.767-.195 7.144-.387 3.012-.244 6.012-.641 9.023-.9 1.345-.114 2.71.012 4.058-.085 1.682-.122 3.356-.504 5.036-.518 2.539-.023 5.08.173 7.93.277zm-8.059-9.627c-1.831-.28-3.653-.716-5.493-.808-3.116-.155-6.248-.22-9.363-.082-2.361.104-4.733.45-7.051.923-2.863.586-5.786 1.145-8.474 2.232-1.943.786-3.588 2.363-5.267 3.71-.358.287-.293 1.104-.423 1.676.458-.066.914-.161 1.375-.19.532-.033 1.077.058 1.6-.018 3.406-.497 6.798-1.104 10.213-1.517 2.742-.332 5.512-.422 8.266-.652 2.156-.18 4.306-.417 6.46-.61.479-.042.966.017 1.447-.01.75-.044 1.499-.108 2.247-.186 1.284-.134 2.564-.371 3.85-.412 2.185-.069 4.373-.009 6.56-.035.209-.002.415-.23.622-.354-.119-.183-.195-.451-.364-.536-2.009-1.007-4.031-1.988-6.205-3.13zm-11.625 29.346c-1.404.259-2.81.511-4.212.782-.257.05-.499.176-.748.266.173.238.298.61.527.691 1.184.424 2.373.966 3.601 1.11 2.643.309 5.195-.208 7.566-1.462.23-.122.383-.389.573-.589-.264-.214-.515-.596-.792-.616a68.04 68.04 0 00-6.515-.182z" fill="#FFB61D"/><path fill-rule="evenodd" clip-rule="evenodd" d="M257.322 220.626c.158-1.037.4-2.071.457-3.115.11-2.012.153-4.03.127-6.046-.005-.363-.511-1.049-.728-1.025-1.258.131-.889-.475-.833-1.26.08-1.134-.317-2.305-.217-3.435.091-1.028.56-2.028.897-3.028.057-.167.298-.388.444-.382.154.01.406.246.425.407.242 2.031.407 4.071.681 6.096.245 1.814.684 3.602.875 5.419.096.919-.227 1.872-.257 2.817-.073 2.304.157 4.583-.223 6.925-.346 2.136-.403 4.325-1.004 6.44-.095.332.033.835.249 1.106.121.149.66.043.974-.059 5.461-1.78 10.915-3.584 16.376-5.367.292-.096.63-.062.946-.09-.273.168-.543.339-.819.497-2.803 1.593-5.607 3.18-8.407 4.776-.208.118-.385.289-.577.435.309.127.646.407.924.354 1.722-.314 3.046.699 4.5 1.276.146.056.254.215.379.327-.193.096-.391.282-.579.273-1.836-.081-3.669-.258-5.505-.273-1.265-.013-2.557.059-3.793.31a243.001 243.001 0 00-9.537 2.171c-1.012.248-1.948.798-2.955 1.083-.537.153-1.033.209-1.752-.012-1.236-.376-2.777.248-4.187.475-.086.013-.226.286-.197.32.179.217.403.571.604.565.631-.018 1.256-.189 1.888-.267.181-.025.377.075.566.115-.158.075-.319.14-.473.221-1.315.695-2.638 1.372-3.931 2.105-.178.102-.354.556-.274.717 1.54 3.143 3.121 6.264 4.683 9.394.114.227.15.497.222.745-.213-.08-.453-.121-.634-.245-3.098-2.155-5.582-4.77-6.382-8.627-.123-.593-.109-1.236-.349-1.773-.155-.345-.648-.745-1.003-.758-.797-.031-1.609.125-2.401.277-1.253.242-2.483.667-3.745.789-1.662.161-3.348.052-5.018.146-2.153.124-4.298.4-6.451.484-1.384.056-2.78-.09-4.167-.189-2.568-.19-5.133-.413-7.7-.615-2.804-.224-5.616-.373-8.41-.68-1.355-.149-2.675-.603-4.017-.885-2.996-.634-6.003-1.221-8.989-1.898-.584-.13-1.067-.714-1.652-.848-.506-.111-1.228-.468-.917.941.308 1.401-.403 3.028-.677 4.553-.022.121-.115.23-.174.341-.044-.186-.161-.394-.119-.562.482-1.931.027-3.754-.645-5.537-.303-.804-.758-1.549-1.131-2.325-.059-.125-.053-.28-.077-.42.146.056.29.121.439.165 3.575 1.099 7.146 2.211 10.729 3.282.759.227 1.558.37 2.348.432.538.046 1.693 1.369 1.48-.578.87-.074 1.748-.264 2.606-.192 1.074.087 2.14.348 3.19.612.327.083.59.419.882.639-.24.159-.475.326-.724.469-.148.084-.318.127-.478.19.176.074.347.192.53.214 1.666.186 3.33.425 5.002.518 4.425.246 8.851.482 13.279.6 1.201.031 2.407-.466 3.623-.553 1.473-.102 2.96.009 4.438-.047 1.216-.043 2.438-.133 3.638-.323 1.469-.236 2.926-.568 4.375-.912a667.145 667.145 0 009.764-2.373c2.02-.512 4.007-1.165 6.036-1.633 1.172-.271.689-.808.28-1.239-2.644-2.798-5.293-5.59-8.006-8.317-.746-.751-1.058-1.201-.053-1.993 2.546-2.013 5.021-4.112 7.529-6.171.107-.09.289-.09.385-.183.52-.503 1.024-1.022 1.534-1.534-.66.053-1.318.118-1.978.158-1.852.109-3.705.289-5.557.289-1.824 0-2.66.811-3.02 3.084-.134.844-.445 1.671-.73 2.487-.156.447-.427.857-.646 1.283-.156-.503-.474-1.019-.439-1.509.19-2.699.959-6.63 4.488-7.835.133-.047.226-.196.35-.28.411-.276 1.566.547 1.264-.599-.216-.823-.957-1.727-1.71-2.121-.655-.339-1.871-.32-2.461.087-1.328.919-1.236-.432-1.288-.792-.22-1.565-.281-3.152-.324-4.733-.005-.167.531-.546.744-.5 3.406.743 6.331-.413 9.039-2.304.786-.549 1.321-1.45 2.096-2.021 1.07-.789.707-1.497.187-2.385-2.435-4.162-4.979-8.267-7.188-12.546-1.705-3.304-2.973-6.834-4.421-10.269-.077-.183-.022-.423-.028-.636.146.146.314.276.435.441 3.271 4.461 6.289 9.083 8.533 14.157 1.082 2.446 2.002 4.965 2.957 7.465.365.956.636 1.947.929 2.928.274.919-.7 3.31-1.598 3.885-2.123 1.357-4.228 2.745-6.401 4.015-.851.497-.956 1.065-.395 1.665 1.458 1.555 2.976 3.074 5.146 3.639.249.065.5.124.749.186.837.208 2.276.246 2.394.662.326 1.143.098 2.444.089 3.683-1.938.394-2.565 2.472-4.245 3.282-1.391.671-2.601 1.733-3.852 2.674-.608.459-.669 1.068-.079 1.633 2.255 2.165 4.514 4.323 6.777 6.475.119.115.289.171.435.255.02-.146.058-.295.058-.441.004-1.5-.035-3.003.012-4.503.068-2.183.176-4.366.321-6.543.025-.382.316-.742.484-1.112.065.429.103.86.201 1.28.094.394.25.776.457 1.242.005.316-.067.556-.14.792.134.012.268.021.401.034l-.183-.904zm7.439 11.335l.195-.736c-.281-.056-.597-.215-.833-.137-.241.081-.404.394-.602.609.362.139.724.279 1.24.264z" fill="#E7EAEE"/><path fill-rule="evenodd" clip-rule="evenodd" d="M231.593 254.475c.509 2.664.508 2.515-2.211 2.534-2.154.015-4.328.335-6.45.745-2.983.571-4.638.456-6.139-2.137-.233-.4-.394-.928-.369-1.385.157-2.931-1.449-5.872-4.167-7.139-2.636-1.23-5.39-1.289-8.163-.385-.859.28-.818.565-.276 1.255 2.714 3.462 5.315 7.012 8.043 10.462.922 1.167 2.1 2.133 3.159 3.195 1.143 1.146 2.698.776 4.012.848 1.955.106 3.589 1.183 3.901 3.167.079.5.41.963.624 1.441.329-.242.644-.503.989-.723 3.314-2.099 6.631-4.196 9.957-6.279.213-.134.501-.149.754-.218-.109.249-.184.522-.333.746-2.114 3.155-5.326 4.891-8.551 6.608-.313.164-.622.338-.933.512.355.137.712.277 1.067.419 3.099 1.249 6.242 2.404 9.265 3.817.767.36 1.652 1.59 1.575 2.329-.083.804-1.08 1.779-1.918 2.199-2.576 1.285-5.303 1.515-8.173.863-2.973-.677-6.037-.947-9.013-1.609-2.381-.531-4.693-1.378-7.033-2.093-.916-.279-1.872-.487-2.723-.903-.755-.373-1.862-.752-1.035-2.031.044-.066-.106-.336-.228-.42-1.28-.891-2.588-1.745-3.854-2.655-.338-.245-.561-.646-.837-.975.369-.233.721-.5 1.111-.689.427-.208.945-.27 1.319-.54.431-.311 2.041-.159.69-1.385.585-.451 1.111-1.128 1.768-1.298 1.076-.28 2.237-.221 3.361-.317.612-.053 1.236-.072 1.827-.215.407-.099.767-.388 1.148-.59-.212-.22-.41-.453-.637-.655-3.786-3.369-7.031-7.176-9.883-11.387-3.024-4.466-7.502-6.112-12.803-5.571-.823.081-1.649.478-2.438.391-.338-.034-.814-.935-.806-1.438.008-.515.448-1.096.839-1.521 1.101-1.199 2.395-.395 3.562-.149 2.869.599 5.713 1.326 8.561 2.024 2.421.597 4.811 1.354 7.258 1.798 2.155.392 4.366.528 6.56.643 4.785.258 9.574.556 14.363.584 2.212.012 4.425-.581 6.643-.86.251-.031.533.276.799.276.56-.003 1.12-.105 1.679-.168-.818.271-1.645.513-2.452.811-1.448.534-2.918.574-4.427.345-.092-.013-.436.59-.385.854.431 2.245.926 4.478 1.403 6.869zm-24.8 11.645c-.194.155-.373.419-.584.45-1.317.177-1.191.78-.345 1.373.693.487 1.529.779 2.317 1.124.912.397 2.228 1.226 1.617 1.947-1.523 1.798.097 1.056.734 1.161.678.109 1.385.379 2.035.283 3.193-.478 6.283-1.224 8.525-3.866.487-.575 1.214-.966.172-1.686-.16-.112.012-.631-.088-.917-.226-.642-.361-1.493-.836-1.829-.627-.441-1.545-.649-2.336-.646-2.403.013-4.804.165-7.205.28-1.504.074-3.012.161-3.447 2.059-.015.065-.264.077-.559.267zm23.25-13.974c-.104-.438-.146-.907-.322-1.314-.489-1.133-.756-2.677-1.634-3.242-.91-.584-2.441-.317-3.688-.233-2.081.143-4.153.419-6.226.668-1.001.121-1.837.466-1.454 1.739.621 2.068 1.25 4.133 1.961 6.17.106.301.702.649 1.038.618 1.8-.171 3.586-.487 5.384-.683 1.041-.115 2.096-.099 3.145-.152 1.697-.087 2.179-.714 1.806-2.28-.074-.31-.01-.652-.01-1.291zm-8.525 22.824c.961.208 1.915.472 2.886.609 1.714.245 3.433.518 5.158.593 2.087.09 4.304.401 5.87-1.522.204-.248.232-1.034.079-1.124-1.731-1.018-3.437-2.152-5.302-2.844-1.841-.684-4.022-.361-5.624-1.888-.142-.137-.768.087-1.067.291a186.559 186.559 0 00-4.771 3.404c-.168.124-.344.559-.282.624.778.811 1.317 2.009 3.053 1.857zm-121.128-3.804c5.404-1.472 10.01-.245 13.994 3.593 3.903 3.764 6.302 8.4 8.086 13.418 1.459 4.105 2.976 8.198 4.253 12.36 1.452 4.732 3.161 9.331 5.338 13.781 3.762 7.695 9.59 12.829 17.804 15.341 3.567 1.093 7.134 2.341 10.151 4.652 1.021.782 1.799 1.885 2.673 2.853.077.084.039.271.054.414-.146-.066-.318-.1-.435-.199-4.085-3.453-8.953-5.422-13.806-7.469-5.267-2.22-10.362-4.797-14.114-9.328-3.278-3.96-5.371-8.568-6.941-13.419-1.7-5.248-3.256-10.545-4.988-15.784-1.64-4.963-4.047-9.527-7.475-13.509-.876-1.018-2.085-.751-3.162-.698-2.279.115-4.55.385-6.825.593-1.111.102-2.222.217-3.334.304-.183.013-.374-.087-.561-.133.173-.056.344-.128.521-.168a2142.84 2142.84 0 018.7-1.95c.446-.103.907-.137 1.355-.23.705-.146 1.406-.314 2.109-.472-.548-.55-1.036-1.18-1.655-1.63-1.795-1.301-3.884-1.699-6.042-1.603-2.424.109-4.839.432-7.264.519a158.57 158.57 0 01-8.912.065c-2.472-.053-5.007.022-7.397-.5-3.952-.86-7.887-1.941-11.69-3.313-5.477-1.975-10.51-4.863-15.069-8.521-.775-.622-1.253-.743-2.289-.131-4.716 2.776-9.538 5.376-14.37 7.95-3.253 1.73-6.585 3.31-9.887 4.947-.181.09-.422.056-.635.08.128-.145.233-.326.388-.434 3.799-2.677 7.454-5.599 11.446-7.95 4.279-2.515 8.857-4.531 13.343-6.683 1.675-.804 3.455-1.388 5.197-2.046.25-.097.555-.047.835-.065-.187.18-.392.344-.558.54-.824.975-1.658 1.941-2.423 2.959-.074.097.237.621.479.801 5.062 3.789 10.694 6.444 16.695 8.338 2.185.69 4.388 1.354 6.623 1.845 2.046.45 4.138.764 6.226.932 2.755.22 5.526.295 8.292.316 1.73.016 3.461-.183 5.27-.366z" fill="#00160A"/><path fill-rule="evenodd" clip-rule="evenodd" d="M171.145 237.395c-.207 2.053-.437 4.105-.613 6.161-.14 1.627-.211 3.261-.322 4.888-.009.14-.08.276-.123.413-.06-.109-.155-.214-.177-.332-.523-2.752-1.037-5.506-1.559-8.254-.025-.134-.106-.255-.161-.382-.048.136-.13.267-.14.407-.112 1.456-.239 2.912-.309 4.372-.125 2.593-.211 5.189-.32 7.785-.006.143-.067.28-.103.422-.068-.146-.171-.288-.198-.441-.341-1.981-.698-3.959-.996-5.946-.228-1.525-.302-3.075-.615-4.575-.071-.338-.944-.844-1.283-.742-2.522.78-5.154.817-7.697 1.295-2.61.494-5.139-.043-7.69.208-.562.056-.846-.04-.251-.54.079-.065.196-.134.213-.217.464-2.342 1.79-2.131 3.802-1.845 2.659.379 5.439-.103 8.167-.193.357-.012.719.156 1.076.146.646-.012 1.691.749 1.584-.847-.039-.575.193-1.007 1.152-.92 1.45.134 3.268-2.105 3.138-3.614-.143-1.662-.313-3.332-.641-4.963-.165-.823-.531-1.813-1.809-1-.512.327-1.157.441-1.738.662-.359.133-.711.286-1.067.432.113-.522.053-1.218.369-1.538 1.088-1.099 2.543-1.251 4.019-1.192.141.006.28.065.419.102-.044-.149-.108-.292-.13-.441-.321-2.139-1.285-4.058-2.794-5.481-1.262-1.186-1.319-2.689-1.875-4.065-.05-.127.015-.298.026-.45.147.065.325.1.434.202 2.252 2.183 4.001 4.717 5.099 7.658.786 2.108 1.279 4.298 1.253 6.571a4.005 4.005 0 000 .155l.071 2.683c.823-.382 1.642-.773 2.47-1.146 2.612-1.174 5.223-2.35 7.85-3.493.283-.124.826-.544.811.41-.011.686.194 1.524.613 2.04.963 1.189.49 2.317.34 3.587-.225 1.888-.102 3.819-.056 5.732.067 2.801.2 5.605.295 8.406.006.19-.071.382-.11.572-.065-.205-.15-.404-.191-.615-.342-1.72-.683-3.444-1.01-5.167-.294-1.553-.567-3.112-.854-4.665-.308-1.667-.614-3.332-.95-4.993-.013-.065-.332-.112-.497-.087-.146.022-.393.149-.395.236-.025 1.31.019 2.621-.026 3.931-.073 2.149-.192 4.295-.311 6.444-.012.205-.161.407-.246.609-.122-.168-.315-.32-.354-.503-.635-3.034-1.244-6.075-1.883-9.108-.047-.218-.273-.401-.416-.6-.064.208-.161.413-.186.624-.116.991-.271 1.982-.305 2.975-.129 3.733-.259 7.466-.3 11.201-.017 1.559.219 3.121.267 4.683.013.404-.248.817-.383 1.227.032-.354.113-.711.086-1.059a41.712 41.712 0 00-.307-2.872c-.36-2.416-.767-4.826-1.125-7.242a203.866 203.866 0 01-.721-5.391c-.094-.77-.111-1.547-.24-2.398.026-.434.229-.804.203-1.152-.024-.313-.301-.608-.466-.913.012.715.023 1.429.041 2.143 0 .003.095 0 .145 0zm-4.805 2.174c.457-.578.914-1.152 1.372-1.73-.677.267-1.353.534-2.03.798-.31.121-.637.208-.929.364-.166.09-.278.282-.414.428.195.149.393.429.584.423.371-.01.738-.177 1.417-.283zm5.89-5.9c-.426.118-.86.214-1.27.369-.064.025-.023.329-.031.503.415-.065.839-.096 1.237-.214.113-.034.148-.326.064-.658z" fill="#E7EAEE"/><path fill-rule="evenodd" clip-rule="evenodd" d="M325.21 280.56c-1.395 0-2.635.015-3.875-.009-.26-.007-.518-.153-.775-.233.223-.23.44-.652.673-.659 1.77-.056 3.546 0 5.319-.037 4.089-.084 8.178-.273 12.266-.276 2.682-.003 5.36.245 8.038.391.8.047 1.597.152 2.397.199 1.99.115 3.977.261 5.967.301 2.461.053 4.926-.003 7.387.028.527.006 1.048.224 1.578.292 1.739.22 3.475.447 5.22.618 2.375.236 4.755.407 7.13.633 1.916.184 3.822.447 5.738.609 2.929.245 5.936.096 8.779.717 5.471 1.196 11.351 1.758 15.263 6.546 1.299 1.59 2.719 3.435 3.075 5.351.562 3.031-.359 6.111-2.681 8.307-2.647 2.5-5.626 4.646-8.367 7.052-2.284 2.012-4.147 4.581-4.215 7.599-.112 4.798-.044 4.711 4.147 7.549 3.134 2.121 6.501 3.95 9.914 5.602a77.304 77.304 0 0017.068 5.922c.982.218 2.018.196 3.019.351.254.041.468.342.701.522-.258.127-.524.385-.769.363a35.606 35.606 0 01-3.134-.403c-2.148-.367-4.34-.615-6.429-1.205-2.474-.702-4.886-1.656-7.285-2.603-5.611-2.217-10.769-5.254-15.465-9.027-1.262-1.012-2.449-2.36-3.107-3.81-.48-1.059-.275-2.599.05-3.814.667-2.509 1.916-4.807 3.76-6.645 2.083-2.075 4.414-3.894 6.494-5.969 2.561-2.552 5.053-5.363 5.106-9.167.043-3.083-1.308-5.906-4.331-7.291-2.467-1.131-5.043-2.131-7.672-2.773-2.811-.687-5.735-.92-8.617-1.295-2.71-.351-5.425-.665-8.141-.929-2.597-.254-5.208-.394-7.802-.64-2.855-.273-5.698-.686-8.556-.897-1.885-.14-3.788.003-5.682-.04-.787-.019-1.565-.218-2.353-.292-2.306-.221-4.612-.478-6.922-.612a180.271 180.271 0 00-8.602-.311c-4.718-.049-9.436-.015-14.309-.015zM2.744 273.65c-4.986 2.823 1.545-2.326 7.786-6.863 5.954-4.328 11.974-8.564 17.864-12.977 3.468-2.599 6.75-5.447 10.093-8.211 3.739-3.089 7.469-6.192 11.168-9.331a165.455 165.455 0 005.66-5.05 372.899 372.899 0 006.886-6.58c5.448-5.329 10.924-10.626 16.291-16.036 3.526-3.553 6.782-7.378 10.341-10.894 4.893-4.838 10.14-9.255 16.569-11.98 2.944-1.248 5.922-2.414 8.895-3.592.193-.076.475.071.715.115-.196.109-.391.222-.589.329-4.689 2.524-9.455 4.917-14.039 7.62-2.777 1.639-5.386 3.62-7.865 5.692-2.925 2.447-5.764 5.03-8.398 7.785-4.491 4.701-8.72 9.651-13.202 14.359-3.143 3.304-6.514 6.388-9.801 9.549-1.357 1.308-2.722 2.609-4.148 3.838a845.549 845.549 0 01-10.092 8.565c-3.447 2.879-6.893 5.761-10.41 8.552-3.99 3.165-8.038 6.258-12.098 9.332a690.658 690.658 0 01-10.675 7.903c-3.606 2.624-7.248 5.202-10.951 7.875zm330.293-6.676c-.195 2.087-2.508 2.649-4.458 2.406-.734-.093-1.46-.245-2.197-.301-1.659-.13-3.323-.177-4.982-.332-.908-.087-1.159.13-1.19 1.124a106.257 106.257 0 01-.617 8.586c-.155 1.345-.958 2.212-2.561 2.128-2.024-.103-4.079.136-6.088-.078-1.441-.155-3.007-.55-4.185-1.335-.908-.606-1.726-1.947-1.825-3.031-.19-2.028.096-4.118.344-6.161.108-.873.167-1.199-.902-1.249-5.245-.245-10.506-.394-15.72-.965-4.175-.457-8.326-.038-12.483-.243-.636-.031-1.299.103-1.903-.04-.496-.115-.924-.528-1.381-.81.556-.028 1.111-.078 1.669-.081 1.826-.013 3.651-.056 5.474.009 2.015.068 4.024.289 6.039.357 1.525.05 3.053-.102 4.575-.043 2.111.081 4.216.295 6.327.413 1.519.087 3.091.376 4.548.096 2.817-.534 4.432.453 4.451 3.189.006 1.01-.133 2.028-.304 3.025-.604 3.574 2.021 6.273 5.782 6.009 1.593-.112 3.202-.025 4.804-.016 1.42.01 2.418-.931 2.421-2.562.003-1.767-.251-3.537-.263-5.304-.009-1.301.127-2.614.341-3.897.037-.223.79-.481 1.203-.466 2.452.103 4.904.264 7.356.432 1.01.068 2.015.276 3.022.286 1.308.015 1.569-1.003 1.686-2.025.14-1.211.295-2.432.295-3.649.003-1.199-.273-2.397-.267-3.596.013-2.32-.313-4.015-2.027-4.987-1.318-.749-2.641-.78-4.117-.357-1.767.506-3.608.633-5.443.108-1.628-.468-2.406-1.732-2.133-3.506.208-1.357-.232-2.801-.226-4.204.009-1.454.201-2.907.332-4.357.068-.739.213-1.475.254-2.217.046-.792-.044-1.59.021-2.379.177-2.211.416-4.416.608-6.627.22-2.534.397-5.074.629-7.608.177-1.969.453-3.931.602-5.903.164-2.183.164-4.382.381-6.559.115-1.149.62-2.254.803-3.403.211-1.317.254-2.662.381-3.991.019-.186.099-.369.152-.553.053.187.105.37.155.556.208.795.282 1.652.642 2.37 1.209 2.413.037 4.658-.295 6.981-.142.993-1.423 1.369-1.048 2.679.224.774-.434 1.764-.523 2.671-.351 3.54-.655 7.087-.94 10.633a111.282 111.282 0 00-.31 5.357c-.127 4.198-.176 8.4-.341 12.595-.043 1.168-.313 2.335-.579 3.478-.332 1.413 1.215 2.96 3.106 2.978 2.48.025 4.956 0 7.436.013.605.003 1.51-.156 1.752.161.781 1.019 1.385 2.196 1.934 3.369.769 1.652.195 3.326-.347 4.867-.431 1.223-.242 2.232.353 3.198.611.991.4 1.82-.223 2.761z" fill="#00160A"/><path fill-rule="evenodd" clip-rule="evenodd" d="M124.879 231.805c-.184.413-.755.947-.65 1.211.377.948 2.472 1.758 3.263 1.218.382-.258.414-1.1.508-1.693.067-.422-.027-.869-.049-1.307.264.835 1.826-.621 1.757 1.081-.037.916.568 1.605 1.567.5.404-.448 1.049-.677 1.584-1.007-.051.556-.188 1.118-.135 1.662.116 1.189-.044 1.692-1.522 1.503a23.797 23.797 0 00-5.927-.013c-2.618.323-5.197.976-7.784 1.525-.228.047-.398.37-.594.565.225.115.445.317.677.333 1.102.068 2.221-.007 3.309.146 3.013.425 6.011.953 9.02 1.409.522.078 1.094-.087 1.59.05.258.075.399.565.593.867-.273.096-.597.341-.812.27-2.504-.864-5.045-.646-7.454.111-3.749 1.177-7.411 2.634-11.102 3.997-3.315 1.224-6.617 2.478-10.003 3.72 1.984-.931 4.056-1.841 6.106-2.798 2.164-1.012 4.309-2.065 6.458-3.105.145-.071.253-.22.378-.332-.431-.475-.775-1.187-1.309-1.385-2.552-.951-5.129-1.86-7.749-2.599-2.71-.767-5.469-1.376-8.228-1.948-1.937-.403-3.913-.618-5.866-.95-.245-.04-.457-.276-.685-.422.286-.106.59-.339.855-.298 2.259.341 4.501.816 6.768 1.08 2.053.243 4.143.168 6.193.423 2.059.258 4.084.776 6.132 1.127.9.155 1.821.196 2.734.245.066.003.254-.369.209-.512-.519-1.643-1.077-3.273-1.606-4.913-.032-.102.091-.36.151-.363a24.173 24.173 0 011.703-.016c.676.016 1.655-.388.843 1.066-.311.559.27 1.633.524 2.447.015.049.807-.01 1.114-.208 1.39-.907 2.73-1.892 4.105-2.823.186-.128.469-.18.699-.162.854.075 1.705.196 2.635.298zm-6.587 8.695l1.28-.931c.113-.081.228-.159.342-.236-.239-.016-.556-.137-.702-.028a2.683 2.683 0 00-.92 1.195z" fill="#E7EAEE"/><path fill-rule="evenodd" clip-rule="evenodd" d="M178.585 264.101c-3.136-.419-6.046-1.117-8.871-2.167-2.877-1.071-4.704-3.087-5.363-6.071-.261-1.183-.273-2.425-.328-3.646a645.228 645.228 0 01-.309-8.564c-.006-.212.116-.423.178-.634.074.177.175.348.215.531.286 1.298.67 2.587.813 3.9.23 2.106.206 4.242.466 6.345.172 1.397.413 2.878 1.04 4.111 1.407 2.767 4.165 3.602 6.954 3.994 8.474 1.183 15.982 4.44 22.815 9.623 2.875 2.183 6.299 3.677 9.573 5.279 3.257 1.593 6.62 2.978 9.97 4.37 6.061 2.521 11.755 5.757 17.18 9.387 4.671 3.124 9.064 6.702 12.548 11.214 1.409 1.826 2.737 3.72 4.033 5.63.166.242-.084.77-.142 1.167-.256-.192-.573-.338-.758-.586-1.769-2.364-3.377-4.867-5.296-7.102-4.85-5.643-10.859-9.835-17.454-13.158-8.586-4.329-17.29-8.422-25.854-12.794-3.603-1.838-7.007-4.081-10.443-6.229-3.294-2.062-6.77-3.624-10.59-4.385-.085-.016-.149-.14-.377-.215zm-39.756-98.827c1.762-1.898 3.987-2.768 6.268-3.457 2.094-.632 5.564.901 6.322 2.976.373 1.02.011 2.342-.134 3.513-.256 2.052-.608 4.091-.908 6.137-.522 3.562-1.074 7.119-1.529 10.689-.145 1.137.044 2.314-.037 3.464-.158 2.263-.456 4.517-.586 6.78-.097 1.668-.008 3.348-.043 5.019-.002.124-.363.211-.504.366-.165.177-.384.41-.386.618-.023 3.431-.081 6.866.01 10.297.048 1.795 1.789 2.569 4.099 2.479 2.643-.103 5.329-.038 7.941.335 1.545.224 1.665 2.099 1.801 3.279.275 2.363.08 4.786.083 7.18.002 1.593.243 3.254-.95 4.565-.412.453-1.001.844-1.582 1.018-.795.236-1.659.261-2.496.326-.176.013-.368-.192-.553-.295.22-.142.438-.403.659-.406 2.283-.031 3.761-1.295 3.973-3.64.191-2.105.398-4.236.261-6.332-.078-1.202-.606-2.521-1.32-3.503-1.256-1.726-4.35-2.254-6.462-1.388-2.228.91-5.099.065-6.349-1.931a2.448 2.448 0 01-.348-1.392c.152-1.884.423-3.76.587-5.645.15-1.73.267-3.463.307-5.199.052-2.26-.04-4.521.041-6.779.029-.801.52-1.58.564-2.384.092-1.685-.053-3.385.051-5.069.095-1.543.397-3.072.595-4.609.213-1.656.402-3.316.617-4.972.481-3.698.995-7.392 1.45-11.093.205-1.676-1.775-3.458-3.752-3.69-2.051-.241-3.763.567-5.131 1.812-2.189 1.993-4.153 4.238-6.162 6.424-.976 1.062-1.789 2.275-2.758 3.346-3.41 3.769-6.855 7.507-10.292 11.251-.152.165-.361.277-.544.413.053-.213.084-.434.161-.638 1.477-3.923 4.695-6.512 7.357-9.508 3.114-3.503 6.393-6.859 9.679-10.357z" fill="#00160A"/><path fill-rule="evenodd" clip-rule="evenodd" d="M300.953 274.271c-2.024-.335-4.014-.605-5.905-1.201-2.161-.68-3.803.155-5.378 1.391-.112.087.083.938.3 1.025 2.527 1.012 5.056 2.027 7.642 2.872 1.683.55 3.369 1.028 5.276.755.958-.137 2.073.841 3.118 1.307.285.127.586.221.877.332-.344.041-.688.112-1.032.115-1.466.013-2.935-.077-4.389.028-1.37.096-2.722.401-4.086.587-.211.028-.446-.102-.669-.161.185-.047.371-.097.561-.137.313-.068.626-.127.939-.193-.295-.04-.602-.034-.877-.127-5.71-1.925-11.423-3.847-17.124-5.798-3.029-1.037-6.039-2.127-9.053-3.211-.277-.099-.503-.338-.753-.515.359-.012.74-.115 1.073-.031 2.676.683 5.342 1.394 8.007 2.112 1.876.506 3.742 1.027 5.608 1.552.592.168 1.225-.91 1.06-1.851-.254-1.462-.533-2.919-.765-4.384-.013-.066.334-.283.508-.274 1.665.081 3.326.181 4.985.305.477.034 1.432-.326.855.832.264.037.53.068.794.112 1.816.289 3.376 1.028 4.637 2.428.391.432 1.091.926 1.575.857.824-.112 1.212-.702.989-1.757-.121-.562-.567-1.904 1.029-1.882.896.012.874.31.704 1.043-.103.438.223.972.356 1.463.462-.249.93-.488 1.383-.752.248-.143.474-.326.71-.49-.028.276-.112.559-.081.826.248 2.133-1.135 2.577-2.874 2.822zm-13.562-3.804c.211.836.425 1.668.636 2.503.707-.304 1.413-.605 2.114-.913.391-.171.809-.31 1.147-.556.211-.152.434-.686.421-.695-.92-.6-1.816-1.301-2.83-1.658-.335-.122-.982.649-1.488 1.319z" fill="#E7EAEE"/><path fill-rule="evenodd" clip-rule="evenodd" d="M102.56 247.953c-2.142.932-4.347 1.898-6.583 2.789-2.84 1.13-5.72 2.158-8.541 3.329-.566.233-.979.882-1.408 1.385-.184.214-.231.547-.341.826-.033-.348-.12-.702-.09-1.043.094-1.078-.238-1.118-1.289-.96-1.464.221-3.02-.217-4.507-.075-2.004.193-3.998.6-5.964 1.053-1.058.246-2.179.596-3.044 1.218-1.783 1.279-1.612 2.981.192 3.701 1.641.658 3.3 1.267 4.969 1.851.151.053.621-.261.614-.385-.065-1.112-.272-2.217-.296-3.326-.016-.702.086-1.469.379-2.09.143-.304.84-.348 1.287-.509.025.41.12.826.063 1.22-.237 1.674-.524 3.335-.774 5.006a.918.918 0 00.118.565c.344.569 2.323.783 3.054.351.942-.556.49-1.397.217-1.978-.76-1.615-.418-3.08.337-4.531.138-.264.475-.425.72-.633.065.276.172.549.188.829.116 1.99-.01 4.034.418 5.956.193.866 1.459 1.512 2.304 2.174.064.05.923-.55.957-.895.122-1.229.043-2.478.053-3.72.001-.192.07-.382.107-.574.066.202.156.4.194.608.54 2.892 4.151 5.835 7.235 5.941.374.016.74.276 1.109.425-.344.041-.688.09-1.033.125-2.879.288-5.689-.271-8.533-.572-5.01-.534-9.594-2.031-13.745-4.919-1.263-.878-2.361-1.692-2.091-3.475.268-1.767 1.452-2.863 2.925-3.335 1.605-.515 3.374-.534 5.076-.736 1.16-.136 2.331-.167 3.487-.326 1.996-.273 4.004-.515 5.968-.947 2.19-.481 4.335-1.171 6.503-1.758 2.805-.757 5.613-1.503 8.42-2.251.42-.112.845-.208 1.345-.314z" fill="#00160A"/><path fill-rule="evenodd" clip-rule="evenodd" d="M324.823 228.467c-.751-1.556-1.643-2.981-2.031-4.531-.387-1.54-.273-3.208-.363-4.819-.006-.103.115-.211.18-.32.143.202.329.382.425.602 1.249 2.895 2.573 5.761 3.698 8.702.949 2.475 1.817 4.999 2.437 7.571a53.925 53.925 0 011.267 7.847c.208 2.326.013 4.686.059 7.03.016.68-.155.935-.837.826-1.069-.173-2.135-.385-3.214-.447-.617-.034-1.249.199-1.876.308-.291.049-.592.164-.871.121-1.165-.174-3.01-2.516-3.162-3.665-.356-2.701.124-4.847 3.079-5.791.576-.183 1.041-.748 1.522-1.18.951-.86.155-1.537-.478-1.711-.855-.233-1.832-.072-2.749.009-.335.028-.648.304-.971.466.028-.59-.046-1.211.118-1.758.087-.279.589-.599.915-.615 1.512-.062 3.053-.195 4.535.025 1.252.187 1.02-.624.877-1.093-.772-2.515-1.646-5.003-2.56-7.577zM328 245.935c0-1.239-.037-2.481.009-3.717.044-1.075-.415-1.184-1.184-.684a201.235 201.235 0 00-5.459 3.637c-.806.562-.812 1.295.025 1.841a198.806 198.806 0 005.66 3.531c.121.072.599-.133.611-.242.146-1.348.233-2.702.338-4.366zm1.643 2.174c-.018-.531-.029-1.066-.08-1.597 0-.015-.378-.006-.58-.009.158.587.317 1.174.66 1.606z" fill="#E7EAEE"/><path fill-rule="evenodd" clip-rule="evenodd" d="M289.639 226.915c1.94-2.255 4.073-4.258 5.595-6.652 1.798-2.832 4.634-4.612 6.566-7.189 2.79-3.717 6.364-6.615 9.473-9.987 1.454-1.574 3.221-2.723 5.341-3.18 1.789-.388 3.295.339 4.662 1.422.072.056.062.211.09.323-.139-.015-.291 0-.415-.049-3.184-1.271-6.088-.413-8.348 1.788-3.264 3.18-6.185 6.717-9.253 10.099a1279.76 1279.76 0 01-3.289 3.602c-3.286 3.606-6.585 7.198-9.858 10.816-2.681 2.966-5.332 5.963-8.004 8.941-3.757 4.186-7.564 8.328-11.27 12.561-2.571 2.938-2.59 6.577-2.417 10.201.047.994.303 1.975.452 2.963.014.09-.05.192-.079.285-.134-.102-.299-.18-.399-.307-2.414-3.081-2.63-7.596-.266-10.717 2.32-3.065 4.83-5.99 7.324-8.918 3.36-3.954 6.77-7.86 10.186-11.764 1.24-1.419 2.551-2.776 3.909-4.238z" fill="#00160A"/><path fill-rule="evenodd" clip-rule="evenodd" d="M153.088 189.961c-.88-1.916-1.681-3.755-2.486-5.591-.058-.132-.223-.253-.215-.371.054-.834.141-1.667.217-2.5.387.62.774 1.241 1.163 1.86 2.841 4.516 4.444 9.552 5.843 14.626.618 2.245.613 4.667.812 7.015.167 1.969.262 3.944.311 5.919.053 2.083-1.212 2.844-3.192 2-.571-.243-1.146-.482-1.737-.665-.465-.146-.66.134-1.034.693-.131.198-.882.251-1.105.068-1.176-.96-2.515-1.86-3.31-3.096-.496-.77-.142-2.099-.145-3.177-.002-.727-.109-1.233.969-1.665 1.767-.704 3.294-2.015 4.89-3.12.038-.025-.264-.851-.482-.889-1.261-.229-2.545-.338-3.822-.478-.208-.022-.42-.003-.629-.003l.006-1.549c.195.052.389.155.585.155 1.548.012 3.098.053 4.644-.006 1.263-.05 1.614-1.311.995-2.926-.788-2.052-1.472-4.145-2.278-6.3zm-2.712 19.02c1.605.987 3.21 1.978 4.817 2.962.318.196.645.373.967.559.035-.347.102-.695.1-1.04-.015-2.875-.04-5.748-.086-8.62-.001-.044-.371-.174-.468-.109-1.91 1.261-3.829 2.512-5.693 3.838-1.165.829-1.08 1.363.363 2.41zm6.509.31c.184.364.367.727.551 1.087.126-.105.358-.208.361-.316.012-.494-.042-.988-.071-1.482-.281.134-.561.267-.841.711zm69.128-27.792c-.359.618-.626 1.23-1.092 1.519-2.497 1.552-5.076 2.973-7.555 4.552-.762.486-1.301 1.325-1.938 2.005-.068.072-.113.166-.168.251.243.002.538.096.721-.008 1.299-.74 2.571-1.527 3.858-2.288a464.853 464.853 0 015.24-3.063c.276-.158.621-.195.934-.288-.156.349-.215.855-.483 1.021-1.678 1.039-3.407 1.991-5.109 2.991-2.286 1.343-4.533 2.757-6.852 4.039-1.802.997-2.47 2.46-2.461 4.46.01 1.975-.31 3.953-.253 5.922.074 2.506.45 4.999.567 7.502.101 2.152.05 4.314-.004 6.469-.01.419-.339.832-.522 1.248-.541-.497-1.283-.904-1.559-1.522-.216-.484.232-1.229.233-1.86.017-13.188.015-26.378.004-39.567-.001-.359-.26-.744-.188-1.071.121-.552.411-1.066.63-1.596.166.531.439 1.053.478 1.593.151 2.058.189 4.124.339 6.182.163 2.245.46 4.481.584 6.728.054.983-.191 1.981-.277 2.974-.021.243.048.494.076.741.249-.098.523-.158.744-.3 3.223-2.076 6.424-4.184 9.662-6.237a40.522 40.522 0 014.391-2.397z" fill="#E7EAEE"/><path fill-rule="evenodd" clip-rule="evenodd" d="M362.409 284.519c-4.613.078-9.226.078-13.835.078-2.598 0-5.202-.072-7.796.018-4.458.15-8.913.504-13.37.563-2.39.031-4.78-.448-7.176-.559-2.288-.106-4.545-.115-6.829-.581-3.206-.658-6.498-.867-9.743-1.335-.692-.1-1.343-.488-2.009-.823 1.296.028 2.594.155 3.893.229 2.245.122 4.489.218 6.733.314 2.657.112 5.313.202 7.97.314 2.192.093 4.383.211 6.578.307 2.604.112 5.211.202 7.815.314 2.244.096 4.488.233 6.733.298 1.562.05 3.134-.056 4.693.025 3.184.161 6.361.435 9.545.596 2.262.112 4.532.115 6.798.242zm-241.405-14.285c-2.881-.919-5.651-1.909-8.499-2.549-1.878-.419-3.869-.329-5.808-.478-2.601-.202-5.202-.413-7.802-.624-.089-.007-.172-.081-.258-.122.11-.062.216-.167.33-.177 1.439-.114 2.878-.208 4.317-.319 2.068-.159 4.133-.392 6.204-.469 1.016-.038 2.07.083 3.059.329 4.444 1.102 8.676 2.761 12.42 5.434 6.069 4.338 10.145 10.052 12.135 17.344 1.081 3.962 2.467 7.884 4.854 11.331.212.308.315.696.441 1.056.071.202.084.426.123.637-.171-.152-.383-.28-.508-.466-4.233-6.298-7.578-13.012-9.978-20.238-1.474-4.441-4.815-7.456-8.861-9.67-.669-.366-1.393-.63-2.169-1.019zm182.507-33.771c.046-2.583.096-5.012.121-7.44 0-.031-.441-.146-.487-.081-1.032 1.373-2.161 2.696-3.022 4.174-2.843 4.869-5.596 9.794-9.157 14.198-.323.397-.751.714-1.082 1.108-.239.286-.403.637-.602.96.403.146.8.36 1.215.422 1.355.208 2.713.385 4.074.522 1.224.121 2.455.164 3.682.258.304.024.623.055.896.173 2.325 1.019 3.99-.114 4.061-2.723.056-2.164.189-4.329.31-6.493.016-.249.186-.485.282-.73.164.211.45.41.468.63.096 1.081.14 2.168.168 3.252.021 1.034-.01 2.068.003 3.102.043 3.102-2.139 4.677-4.848 4.236-1.935-.317-3.931-.227-5.893-.416-1.054-.103-2.087-.448-3.137-.625-.518-.087-1.095.081-1.578-.074-.949-.305-1.188-1.407-.589-2.261 3.106-4.453 6.252-8.878 9.287-13.378 1.234-1.832 2.216-3.832 3.304-5.76.527-.938 1.045-1.755 2.353-1.78 1.405-.028 1.944.795 1.99 1.895.056 1.397-.167 2.807-.288 4.207-.124 1.41-.211 2.823-.431 4.217-.087.563-.474 1.081-.747 1.609-.034.068-.208.065-.319.096-.009-.202-.031-.403-.034-.605-.003-.845 0-1.69 0-2.693zM79.698 318.756c.34-1.739.737-3.31 1.01-4.907.437-2.555.764-5.133 1.192-7.689.244-1.453.675-2.878.871-4.338.139-1.034.027-2.102.027-3.155 0-3.276.105-6.558-.025-9.828-.19-4.758-3.271-8.525-7.79-10.18-2.008-.736-3.885-1.857-5.767-2.9-.478-.267-.877-.86-1.076-1.391-.202-.544-.113-1.193-.15-1.798.328.378.654.757.986 1.13 1.68 1.888 3.95 2.857 6.207 3.72 3.947 1.512 7.022 3.845 8.04 8.121.496 2.08.635 4.254.795 6.397.189 2.54.38 5.093.286 7.63-.09 2.403-.51 4.801-.853 7.189-.4 2.801-.779 5.611-1.35 8.378-.36 1.751-1.05 3.435-1.604 5.143-.073.226-.214.428-.323.642-.159-.239-.408-.459-.455-.717-.077-.416-.02-.86-.02-1.447zm48.668-106.204c1.363-.525 2.85-.714 3.142-2.376.123-.701.229-1.409.257-2.117.043-1.084-.034-2.177.031-3.258.03-.519.268-1.022.412-1.531.255.441.809.96.719 1.311-.644 2.493.322 5.13-.799 7.598-.456 1.003-.885 1.395-2.016 1.339-2.303-.112-4.63.133-6.918-.084a28.705 28.705 0 01-6.166-1.304c-.933-.308-.707-1.41-.162-2.18 2.072-2.919 4.26-5.764 6.214-8.761 2.163-3.316 4.096-6.782 6.181-10.151.367-.592.909-1.177 1.512-1.501 1.537-.826 2.615-.172 2.536 1.541-.146 3.159-.385 6.317-.623 9.472-.02.27-.323.515-.495.773.003-.28.019-.559.007-.838-.084-1.876-.182-3.752-.259-5.627-.05-1.212-.074-2.423-.101-3.637-.005-.236.031-.477.048-.716-.275.084-.629.088-.809.268-.383.38-.692.836-1 1.284-1.57 2.285-3.479 4.425-4.595 6.915-1.086 2.429-2.537 4.556-3.953 6.736-.965 1.484-2.113 2.847-3.148 4.288-.227.317-.327.724-.486 1.09.307.003.62-.031.92.016 1.007.158 2.006.363 3.013.515 2.126.323 4.255.624 6.538.935zm234.043 72.122c2.758.028 5.527.289 8.279.193 3.289-.115 6.51.286 9.759.621 3.49.363 6.599 1.543 9.445 3.518 2.263 1.565 4.421 7.205 3.782 9.761-.546 2.198-4.309 5.338-6.848 5.695-.17.025-.365-.093-.548-.146.176-.075.372-.121.527-.224 1.577-1.053 3.605-1.792 4.631-3.239 2.322-3.276 1.528-6.85-2.083-9.403-3.723-2.63-8.072-3.739-12.456-4.676-1.993-.426-3.974-.951-5.989-1.215-2.82-.372-5.666-.546-8.499-.885zM183.19 157.397c-.892 2.451-1.05 1.483-4.605 2.978-3.385 1.423-6.855 2.653-10.181 4.198-4.073 1.894-8.038 4.024-12.045 6.06-.854.434-1.688.907-2.536 1.355-.421.222-1.007.708-1.244.577-.427-.237.108-2.352.568-2.555 5.628-2.485 11.262-4.955 16.882-7.457 6.014-2.678 6.467-2.705 12.474-5.396.26-.117.535-.203.803-.304a1.726 1.726 0 01-.116.544zm198.36 148.316a256.912 256.912 0 01-5.871 1.861c-3.109.931-6.212 1.878-9.346 2.726-2.638.714-5.332 1.233-7.967 1.95-3.856 1.053-7.684 2.205-11.525 3.311-.065.018-.146-.038-.22-.041-.521-.012-1.042-.025-1.559-.034.496-.295 1.007-.568 1.491-.882 3.419-2.22 7.21-3.528 11.122-4.54 2.734-.708 5.456-1.497 8.221-2.065 2.517-.515 5.093-.736 7.629-1.168 2.446-.416 4.87-.944 7.312-1.391.189-.034.422.177.713.273zM76.21 251.292c-.292-.025-.505-.134-.724-.23-.132-.056-.274-.087-.41-.131.111-.062.216-.149.336-.177 3.478-.835 6.96-1.652 10.436-2.493 2.566-.618 5.118-1.295 7.688-1.891 2.349-.547 4.723-.979 7.069-1.531 2.124-.503 4.217-1.14 6.34-1.649 1.39-.336 2.81-.55 4.211-.839.226-.043.418-.264.643-.301.633-.106 1.275-.162 1.914-.236-.497.289-.963.665-1.495.848-4.711 1.602-9.411 3.242-14.16 4.717-2.457.764-4.996 1.289-7.521 1.798-2.527.512-5.077.925-7.63 1.292-2.197.313-4.412.503-6.696.823zm287.48 73.404a905.112 905.112 0 009.107 4.469l7.226 3.512c.214.105.425.217.636.329-.279.028-.602.165-.831.071-3.184-1.301-6.37-2.583-9.517-3.965a1143.552 1143.552 0 01-15.952-7.143c-3.261-1.493-6.463-3.108-9.706-4.636-.728-.348-1.28-.574-.344-1.36.506-.422.791-.568 1.439-.245 5.955 2.965 11.909 5.928 17.942 8.968zM95.508 218.142c.727-5.984 3.609-10.714 7.732-14.676 3.978-3.826 8.175-7.422 12.285-11.108.161-.143.419-.177.632-.264-.103.183-.176.394-.313.543-3.318 3.646-6.677 7.255-9.955 10.934-2.574 2.888-5.18 5.77-7.521 8.845-1.356 1.779-1.696 3.996-1.355 6.328.232 1.587.047 3.236.039 4.857 0 .14-.08.276-.121.413-.073-.158-.176-.307-.215-.475a243.562 243.562 0 01-1.208-5.397zm12.089 11.8c-.732-.102-1.306-.267-1.887-.295-1.031-.049-2.084.103-3.092-.059-.622-.099-1.176-.627-1.76-.962.482-.078.966-.236 1.445-.221 2.921.078 5.839.227 8.759.286 2.393.049 4.789-.031 7.181.022 2.593.055 5.183.223 7.776.288 1.825.05 3.652-.012 5.477.019 1.794.028 3.251 1.991 2.882 3.764a26.6 26.6 0 00-.424 2.826c-.254 2.577.797 4.412 3.185 5.45.174.077.35.149.525.22-.186.05-.37.14-.558.149-2.52.118-3.47-.814-3.47-3.391v-5.279c0-1.941-.726-2.512-2.656-2.528-4.831-.037-9.661-.186-14.492-.286-.947-.018-1.895-.003-2.843-.003-.051 0-.116.022-.153-.003-1.915-1.245-3.827.68-5.895.003zm242.025-4.58c-4.123-1.643-8.131-3.317-12.226-4.73-1.972-.68-4.117-.854-6.175-1.289-1.783-.375-3.544-.86-5.335-1.173-.868-.153-1.795-.109-2.675-.007-.965.112-.726-.496-.806-1.024-.131-.839.288-.842.948-.879 3.252-.19 6.37.652 9.47 1.344 4.591 1.025 8.999 2.708 13.166 4.913 2.34 1.239 4.535 2.755 6.788 4.161.115.072.149.28.217.429-.173-.047-.369-.056-.524-.14-.93-.5-1.847-1.015-2.848-1.605zm-154.918 22.591a900.18 900.18 0 00-12.719 5.904c-1.511.714-2.984 1.512-4.521 2.161-.44.186-1.043-.022-1.572-.047.278-.394.469-.95.849-1.161 3.27-1.801 6.546-3.599 9.879-5.282 2.083-1.05 4.227-2.013 6.421-2.792 1.048-.376 2.276-.248 3.424-.32.13-.006.272.186.409.286-.13.105-.248.233-.391.317-.537.319-1.082.624-1.779.934z" fill="#00160A"/><path fill-rule="evenodd" clip-rule="evenodd" d="M336.137 256.881c1.696 2.367 3.246 4.671 4.036 7.429.682 2.369 1.138 4.723.853 7.192-.084.72-.078 1.453-.115 2.18-.273-.733-.561-1.46-.822-2.199a19362.71 19362.71 0 01-4.959-14.061c-.016-.047.012-.109-.003-.152-.199-.578-.4-1.152-.602-1.724.512.419 1.023.839 1.612 1.335z" fill="#E7EAEE"/><path fill-rule="evenodd" clip-rule="evenodd" d="M146.346 233.979c-.751-2.167.52-4.363 2.772-4.968 2.095-.566 3.978.164 5.857.934.116.047.221.121.331.183-.189.041-.378.118-.567.122-1.668.009-3.336-.016-5.005.012-1.205.019-1.911.658-1.823 1.885.152 2.14.575 4.279.529 6.409-.023 1.059-.781 2.131-1.301 3.149-.697 1.367-1.849.994-3.035.777-1.402-.255-2.844-.292-4.268-.429-.193-.019-.383-.071-.574-.109.199-.065.394-.167.599-.195 1.633-.218 3.263-.488 4.903-.609 1.785-.127 2.994-2.49 2.228-4.276-.363-.845-.44-1.814-.646-2.885z" fill="#00160A"/><path fill-rule="evenodd" clip-rule="evenodd" d="M219.89 215.424c-1.537 1.025-2.926 2.125-4.489 2.845-.733.338-1.805-.062-2.722-.127.029-.184-.009-.457.097-.534 1.451-1.075 2.873-2.202 4.4-3.159 2.111-1.323 4.301-2.518 6.466-3.751.223-.127.502-.155.756-.23-.065.317-.022.746-.213.929-1.379 1.344-2.806 2.639-4.295 4.027zm-61.842 16.614c-1.136 1.503-.596 3.152-.728 4.705-.029.351-.059.705-.06 1.059-.005 1.379-.664 1.022-1.377.525-2.119-1.472-4.193-3.012-6.371-4.388-1.113-.705-.511-1.655-.686-2.494.193.056.425.062.574.174 1.411 1.081 2.773 2.227 4.23 3.239.413.286 1.093.186 1.651.264.062-.596.356-1.295.144-1.767-.656-1.463-.085-1.736 1.221-1.553.491.072.986.109 1.402.236zm171.734 38.352c-.13.344-.493.596-.517.879-.155 1.652-.23 3.313-.338 4.968-.022.295-.081.587-.124.876-.248-.124-.512-.224-.741-.376-1.981-1.307-3.906-2.717-5.955-3.903-1.125-.652-.896-1.553-.927-2.478.171.003.394-.066.505.018 1.343 1 2.632 2.075 4.005 3.025.682.472 1.699-.124 1.674-.919-.018-.69-.155-1.376-.241-2.065.861-.035 1.72-.069 2.659-.025z" fill="#E7EAEE"/><path fill-rule="evenodd" clip-rule="evenodd" d="M92.795 275.358c2.152-.388 4.22-.751 6.302-.993 2.726-.317 5.464-.528 8.195-.802.848-.087 1.687-.292 2.536-.335.381-.022.777.214 1.166.332-.296.264-.563.711-.891.761-2.375.363-4.764.649-7.148.963-.897.115-1.796.226-2.691.36-2.624.391-5.244.817-7.875 1.164-.383.05-.813-.251-1.221-.388.383-.276.761-.559 1.152-.823.116-.08.264-.108.475-.239z" fill="#00160A"/><path fill-rule="evenodd" clip-rule="evenodd" d="M128.676 199.82c-.291-.55-.503-1.077-.891-1.307-.566-.339-.581-.652-.259-1.103.233-.326.505-.621.76-.931.13.36.179.785.407 1.062.485.593 1.036 1.537 1.608 1.574 1.322.084 1.016 1.14.797 1.438-.545.736-.29 1.388-.294 2.13-.005 1.031-.399 2.056-.447 3.09-.05 1.09.115 2.189.177 3.282.017.311.127.718-.022.91-.373.482-.87.867-1.317 1.292-.069-.4-.197-.798-.2-1.198-.016-3.093-.001-6.189-.022-9.282-.002-.267-.193-.535-.297-.957zm173.595 47.512c-.106.578-.115 1.059-.335 1.407-.263.416-.704.721-1.066 1.071-.05-.391-.143-.782-.143-1.176-.018-3.171.04-6.345-.074-9.509-.025-.69-.682-1.342-.992-2.034-.115-.255-.177-.631-.072-.86.332-.727.732-1.947 1.154-.01.068.298.403.603.691.783 1.612 1.009 1.184 2.413.933 3.903-.347 2.069-1.333 4.168-.096 6.425z" fill="#E7EAEE"/><path fill-rule="evenodd" clip-rule="evenodd" d="M251.742 242.985c1.861-.985 3.692-1.808 5.225-3.016.885-.695 1.252-2.027 1.918-3.03.404-.609.934-1.131 1.408-1.69.445.724.071 1.342-.155 2.05-1.01 3.167-3.554 4.704-6.291 5.968-1.768.82-3.636 1.451-5.511 1.988-.753.217-1.643-.044-2.469-.103-.095-.009-.182-.13-.272-.202.149-.136.276-.341.452-.4 1.317-.435 2.639-.854 3.969-1.245.511-.153 1.047-.215 1.726-.32z" fill="#00160A"/><path fill-rule="evenodd" clip-rule="evenodd" d="M181.762 169.388c.232-1.112.645-2.207.826-3.34.215-1.353.205-2.74.358-4.105.034-.303.341-.574.522-.86.129.308.34.61.365.926.033.407-.513.986.51.973.139-.002.57 1.323.39 1.879-.566 1.754-.909 3.409-.112 5.208.235.529-.064 1.31-.175 1.966-.028.166-.261.389-.424.412-.126.017-.387-.221-.417-.379-.155-.788-.245-1.589-.374-2.383-.067-.413-.169-.819-.256-1.228-.378.31-.757.621-1.213.931z" fill="#FFB61D"/><path fill-rule="evenodd" clip-rule="evenodd" d="M245.852 155.414c.103.852.233 1.546.299 2.246.034.361-.046.733-.074 1.1-.254-.312-.671-.593-.737-.941-.391-2.051-.711-4.116-1.033-6.179-.133-.847-.185-1.707-.32-2.553-.399-2.496-.824-4.988-1.228-7.484-.021-.132.061-.28.095-.421.261.36.677.688.758 1.085a358.07 358.07 0 011.727 9.074c.23 1.296.345 2.611.513 4.073z" fill="#E7EAEE"/><path fill-rule="evenodd" clip-rule="evenodd" d="M210.513 73.121c.936-3.737 1.913-7.302 4.242-10.298.117-.15.287-.261.432-.39-.008.226.039.472-.033.676a859.609 859.609 0 01-2.329 6.609c-.56 1.571-1.12 3.142-1.699 4.706-.112.303-.313.572-.473.857-.108-.316-.286-.628-.306-.949-.022-.347.104-.703.166-1.21z" fill="#00160A"/><path fill-rule="evenodd" clip-rule="evenodd" d="M181.994 189.884c0-.258-.033-.377.005-.462.353-.781.719-1.556 1.08-2.333.155.76.4 1.514.449 2.28.149 2.358.229 4.721.319 7.082.01.288-.018.614-.15.86-.135.251-.417.422-.635.63-.081-.323-.186-.64-.238-.966-.183-1.152-.375-2.304-.512-3.459-.138-1.155-.214-2.32-.318-3.632zm55.721 46.502c-.738-.065-1.398-.208-2.057-.351.583-.27 1.145-.618 1.755-.798 2.282-.68 4.055-1.811 4.433-4.419.057-.391.392-.786.691-1.084.145-.146.546-.168.757-.074.183.08.394.416.368.611-.374 2.832-3.008 5.522-5.947 6.115z" fill="#FFB61D"/><path fill-rule="evenodd" clip-rule="evenodd" d="M181.607 169.388c-.222 1.801-.564 3.597-.811 5.405-.28 2.059-.406 4.14-.727 6.192-.307 1.968-.775 3.911-1.179 5.864-.018.085-.102.158-.155.236-.05-.134-.141-.267-.145-.402-.061-1.991.041-3.944.52-5.913.686-2.819 1.09-5.706 1.655-8.555.19-.955.506-1.885.842-2.827z" fill="#E7EAEE"/><path fill-rule="evenodd" clip-rule="evenodd" d="M184.862 228.467c.399-.27.721-.466 1.044-.661.142.354.4.705.411 1.062.114 3.791 1.664 4.661 4.245 5.434.406.121.79.348 1.146.584.121.081.125.338.183.515-.146-.059-.297-.177-.437-.164-3.43.289-5.264-1.693-6.391-4.584-.25-.639-.194-1.4-.201-2.186zm35.183-81.515c1.48.292 2.89.638 4.277 1.057.204.062.303.471.451.72-.243-.049-.483-.128-.727-.142-1.933-.112-3.866-.226-5.8-.309-.892-.038-1.788 0-2.681-.013-.134-.002-.387-.127-.383-.142.085-.323.11-.809.324-.919.502-.258 1.096-.458 1.652-.457.937.002 1.873.179 2.887.205z" fill="#FFB61D"/><path fill-rule="evenodd" clip-rule="evenodd" d="M230.353 73.121v.777c-.104-.112-.278-.212-.3-.338a938.587 938.587 0 01-2.353-14.132c-.02-.133.112-.29.173-.436.183.08.487.12.527.246.176.552.296 1.125.399 1.697.332 1.847.792 3.686.932 5.55.163 2.166 1.272 4.243.622 6.636z" fill="#00160A"/><path fill-rule="evenodd" clip-rule="evenodd" d="M184.087 206.885c-.11.357-.116.643-.18.913-.059.248-.18.478-.274.717-.237-.102-.658-.171-.681-.31-.42-2.46-1.224-4.932-.021-7.394.116-.24.33-.426.499-.64.141.251.39.494.407.751.134 1.96.224 3.923.25 5.963zm56.263-53.412c-1.888-2.256-4.411-2.748-7.025-3.031-.387-.041-.812-.047-1.136-.223-.183-.099-.197-.512-.286-.783.218.026.439.089.654.072 2.58-.195 5.008.208 7.082 1.879.571.46 1.079 1.013 1.545 1.581.169.206.131.581.187.879-.314-.099-.629-.197-1.021-.374zm-57.116 63.737c0-.671.213-1.36-.04-1.671-.734-.9.32-.978.515-1.434.358.466 1.003.916 1.026 1.397.111 2.233.065 4.475.03 6.714-.005.301-.27.596-.415.894-.165-.276-.398-.537-.484-.835-.464-1.602-1.01-3.199-.632-5.065zm29.527-69.171c-2.502.336-4.926.6-7.352.846-.237.025-.485-.057-.728-.09.179-.218.32-.496.545-.644 1.335-.882 2.815-1.25 4.407-1.116.9.075 1.803.169 2.69.33.201.037.345.389.438.674z" fill="#FFB61D"/><path fill-rule="evenodd" clip-rule="evenodd" d="M112.247 279.628c.826.193 1.498.385 2.17.578-.766.23-1.527.478-2.3.686-.37.096-.761.149-1.145.162-1.648.055-3.297.108-4.946.102-.201-.003-.399-.376-.599-.574.23-.112.451-.292.69-.32 1.99-.227 3.983-.426 6.13-.634z" fill="#00160A"/><path fill-rule="evenodd" clip-rule="evenodd" d="M244.612 189.263c0 2.017.027 3.88-.025 5.741-.009.341-.339.673-.521 1.009-.128-.379-.33-.749-.372-1.137-.232-2.136-.476-4.272-.597-6.416-.031-.548.369-1.121.571-1.682.412.253 1.057.426 1.177.779.148.44-.136 1.027-.233 1.706zm-.327 14.321c0 2.017.027 3.881-.024 5.741-.01.341-.34.674-.522 1.009-.128-.379-.329-.748-.372-1.136-.232-2.137-.476-4.273-.597-6.417-.031-.548.369-1.12.571-1.681.412.252 1.058.426 1.177.778.149.44-.136 1.027-.233 1.706zm-.326 14.321c0 2.018.027 3.881-.025 5.741-.009.342-.339.674-.521 1.009-.128-.378-.33-.748-.372-1.136-.232-2.137-.476-4.273-.598-6.417-.031-.547.37-1.12.571-1.681.412.253 1.058.426 1.177.778.149.44-.135 1.027-.232 1.706zm0-44.358c0 2.017.027 3.881-.025 5.741-.009.341-.339.674-.521 1.009-.128-.379-.33-.748-.372-1.137-.232-2.136-.476-4.272-.598-6.416-.031-.548.37-1.12.571-1.682.412.253 1.058.427 1.177.779.149.44-.135 1.027-.232 1.706z" fill="#FFB61D"/><path fill-rule="evenodd" clip-rule="evenodd" d="M261.041 253.854c-1.357.31-2.464.937-3.821.658-.956-.196-1.986-.013-2.98-.056-.205-.009-.399-.264-.598-.407.204-.065.403-.152.611-.189 2.329-.438 4.662-.851 6.988-1.301.72-.14 1.414-.42 2.136-.535.22-.034.493.264.742.41-.198.109-.39.23-.594.326-.774.37-1.552.73-2.484 1.094z" fill="#00160A"/><path fill-rule="evenodd" clip-rule="evenodd" d="M193.851 150.368a3.311 3.311 0 01-.261-.514c2.412-.424 4.819-.881 7.24-1.24.406-.06.874.3 1.314.465-.409.248-.788.624-1.23.723-1.858.42-3.728.8-5.609 1.09-.426.066-.916-.286-1.454-.524z" fill="#FFB61D"/><path fill-rule="evenodd" clip-rule="evenodd" d="M289.794 219.927a386.72 386.72 0 015.4-3.229c.118-.069.276-.072.415-.103-.046.143-.056.314-.139.432-.571.795-1.113 1.618-1.752 2.354-.341.391-.818.757-1.305.913-1.823.574-3.67 1.068-5.518 1.562-.21.056-.474-.069-.716-.112.193-.109.379-.23.577-.323.986-.475 1.971-.944 3.038-1.494zm-86.41-117.615c.181-.697.363-1.24.545-1.782.025.575.139 1.163.059 1.724-.312 2.186-.623 4.376-1.059 6.54-.235 1.164-.709 2.283-1.111 3.409-.052.147-.318.217-.484.322.063-.147.161-.289.184-.442.433-2.882.842-5.767 1.301-8.645.055-.345.37-.648.565-1.126z" fill="#00160A"/><path fill-rule="evenodd" clip-rule="evenodd" d="M242.442 163.488c.103-.421.32-.699.291-.95-.168-1.477-.418-2.946-.582-4.424-.034-.312.179-.651.277-.978.315.271.815.486.914.821.773 2.607.19 5.288.332 7.934.007.126-.098.258-.151.388-.05-.133-.097-.268-.151-.4-.309-.745-.62-1.49-.93-2.391zm-23.249 57.449a64.02 64.02 0 01-2.814-.32c-.207-.028-.398-.171-.596-.261.137-.202.232-.466.42-.59.273-.18.612-.36.924-.363 1.965-.016 3.968-.327 5.837.605.191.093.379.196.569.295-.247.199-.483.556-.741.571-1.144.075-2.295.05-3.599.063zm-35.029-40.99c-.008.991.03 1.833-.055 2.661-.024.239-.406.44-.624.658-.083-.209-.149-.428-.253-.627-1.222-2.333-.942-4.791-.614-7.253.019-.138.096-.268.145-.402.054.128.122.252.159.385.417 1.473.829 2.948 1.242 4.578zm16.662 18.553c.158-.233.238-.388.318-.543.086.093.243.18.248.279.106 2.081.234 4.161.259 6.245.006.494-.343.991-.529 1.488-.216-.382-.544-.739-.63-1.149-.439-2.093-.929-4.208.334-6.32zm1.008-7.065c0 .774-.006 1.392.002 2.01.004.26.035.524.053.785-.328-.171-.927-.323-.944-.521-.171-2.078-.308-4.164-.291-6.246.003-.335.813-.664 1.249-.995-.023.37-.064.74-.066 1.11-.009 1.234-.003 2.469-.003 3.857z" fill="#FFB61D"/><path fill-rule="evenodd" clip-rule="evenodd" d="M110.465 284.83a1.827 1.827 0 01-.114-.522c1.787-.227 3.575-.444 5.366-.636.408-.044.862-.109 1.228.021.425.152.776.513 1.16.78-.498.205-.982.465-1.499.599a5.185 5.185 0 01-1.496.137 71.305 71.305 0 01-4.645-.379z" fill="#00160A"/><path fill-rule="evenodd" clip-rule="evenodd" d="M201.446 215.735c-.909-1.525-.672-3.093-.509-4.63.039-.366.491-.692.753-1.037.151.292.426.581.433.876.053 2.052-.135 4.13.869 6.049.067.127-.041.348-.067.522-.14-.031-.349-.016-.408-.103-.35-.519-.666-1.062-1.071-1.677zm25.264-22.514c.026-.447.23-.823.213-1.186-.047-.994-.259-1.984-.262-2.975-.002-.551.285-1.104.441-1.656.329.536.882 1.048.941 1.612.16 1.507.173 3.04.104 4.556-.024.528-.458 1.037-.704 1.556-.109-.398-.202-.798-.334-1.187-.075-.226-.212-.428-.399-.72z" fill="#FFB61D"/><path fill-rule="evenodd" clip-rule="evenodd" d="M193.541 125.68a8.606 8.606 0 00-.387 1.033c-.044.136-.083.274-.125.412-.062-.161-.195-.331-.174-.48.233-1.687.4-3.391.766-5.05.354-1.602.921-3.155 1.392-4.731.055-.185.093-.374.139-.561.058.171.175.348.162.514-.085 1.111-.096 2.241-.323 3.324-.383 1.837-.907 3.643-1.45 5.539z" fill="#00160A"/><path fill-rule="evenodd" clip-rule="evenodd" d="M203.926 168.379c1.496-.313 2.925-.595 4.284.128.215.115.298.479.442.728-.236.051-.469.124-.708.15-1.036.112-2.081.163-3.107.336-.451.075-.868.375-1.289.596-.267.141-.512.324-.766.487-.006-.426-.153-.924.017-1.262.215-.429.688-.729 1.127-1.163z" fill="#FFB61D"/><path fill-rule="evenodd" clip-rule="evenodd" d="M212.683 47.968c-.46 2.169-.915 4.184-1.396 6.192-.024.1-.276.146-.422.216-.052-.286-.194-.588-.143-.855.427-2.28.891-4.553 1.339-6.83.028-.147-.035-.334.034-.448.287-.472.608-.922.916-1.38-.006.51.026 1.023-.029 1.528-.052.479-.195.948-.299 1.577zM90.238 259.754c-.01.891-.019 1.624-.039 2.36a.65.65 0 01-.2.031c-.237-.727-.62-1.45-.66-2.189-.097-1.746-.046-3.503-.017-5.252.005-.285.202-.568.31-.85.202.301.567.596.578.903.059 1.612.028 3.23.028 4.997z" fill="#00160A"/><path fill-rule="evenodd" clip-rule="evenodd" d="M225.703 207.273c0-1.736-.098-3.326.052-4.894.053-.55.715-1.04 1.098-1.559.03.519.107 1.043.081 1.559-.079 1.556-.172 3.115-.341 4.661-.017.159-.127 1.363-.89.233z" fill="#FFB61D"/><path fill-rule="evenodd" clip-rule="evenodd" d="M235.855 100.527c.181 1.396.292 2.715.378 4.035.012.175-.099.358-.153.538-.049-.186-.104-.371-.147-.559-.583-2.516-1.195-5.025-1.729-7.552-.189-.891-.2-1.821-.26-2.736-.011-.177.127-.365.195-.548.081.166.198.325.238.5.473 2.08.935 4.162 1.478 6.322zm2.635 14.75c.308 1.654.538 3.231.768 4.807.046.322.178.667.109.963-.09.388-.342.739-.524 1.105-.04-.345-.057-.695-.125-1.035-.437-2.212-.933-4.414-1.311-6.637-.187-1.106-.169-2.247-.227-3.373-.007-.131.091-.269.14-.403.073.172.174.337.214.517.3 1.324.587 2.652.956 4.056zm-5.968-31.597c.246 1.255.498 2.353.728 3.456.027.125-.12.283-.099.412.094.577.219 1.148.332 1.721-.393-.806-.961-1.576-1.141-2.427-.299-1.41-.335-2.873-.505-4.31-.17-1.438-.373-2.872-.547-4.309-.016-.13.075-.274.116-.412.062.056.169.105.18.17.318 1.847.626 3.696.936 5.699zm-33.168 37.575c.413-2.065.824-3.975 1.246-5.883.022-.102.131-.184.2-.276.035.14.086.279.101.422.318 2.915-.748 5.583-1.49 8.308-.043.16-.21.286-.318.428-.12-.208-.372-.443-.336-.62.152-.751.39-1.484.597-2.379zm21.079-86.64c-.248-.425-.516-1.16-.405-1.222.611-.346 1.397-.839 1.967-.689.79.208 1.441.942 2.152 1.45-.869.257-1.73.558-2.614.746-.283.06-.628-.181-1.1-.285zm21.699 102.788c-.31-.591-.723-1.312-.909-2.088a86.353 86.353 0 01-1.185-5.787c-.092-.538.14-1.133.24-1.699.021-.119.115-.225.175-.337.043.137.097.271.127.41.546 2.52 1.115 5.036 1.611 7.566.112.567-.033 1.185-.059 1.935zM93.958 256.959c-.15.512-.299.87-.448 1.227-.16-.18-.405-.333-.469-.541-.457-1.481-.88-2.987-.306-4.53.115-.314.447-.544.68-.814.18.323.5.634.518.963.063 1.177.025 2.36.025 3.695z" fill="#00160A"/><path fill-rule="evenodd" clip-rule="evenodd" d="M201.834 175.289c0 1.759.028 3.364-.02 4.966-.013.41-.272.811-.417 1.216-.165-.379-.46-.754-.471-1.137-.05-1.827-.036-3.657.001-5.485.003-.167.329-.328.506-.492.133.259.267.518.401.932zm4.417 43.396c-.181-.463-.284-.851-.387-1.239.278.127.544.314.837.376 1.989.431 3.983.838 5.976 1.251.19.041.383.072.575.106-.195.068-.388.189-.585.199-1.439.065-2.883.192-4.316.118-.685-.035-1.349-.476-2.1-.811zm21.312-37.496c-.207-1.408-.42-2.659-.615-3.913-.039-.251-.08-.544.01-.765.213-.527.503-1.022.763-1.53.189.637.507 1.267.539 1.912.06 1.233.01 2.479-.106 3.709-.039.419-.413.806-.633 1.208.014-.156.027-.311.042-.621zm-2.713 35.322a12.39 12.39 0 01.866-2.142c.123-.233.405-.385.614-.575.101.239.31.488.284.708-.119 1.05.465 2.174-.297 3.146-.31.397-.683.745-1.027 1.115-.069-.438-.136-.876-.208-1.314a5.119 5.119 0 00-.232-.938z" fill="#FFB61D"/><path fill-rule="evenodd" clip-rule="evenodd" d="M211.133 33.994c.559.47 1.968.72.987 1.507-.72.579-2.027.447-3.08.55-.1.01-.364-.569-.352-.866.01-.227.294-.541.53-.641.563-.239 1.171-.373 1.915-.55z" fill="#00160A"/><path fill-rule="evenodd" clip-rule="evenodd" d="M215.163 169.078c-.824-.256-1.492-.512-2.161-.767.824-.366 1.639-.996 2.474-1.022.842-.026 1.703.544 2.551.869.026.01.007.278-.026.287-.892.222-1.788.426-2.838.633z" fill="#FFB61D"/><path fill-rule="evenodd" clip-rule="evenodd" d="M200.594 96.412a107.172 107.172 0 01-1.212 4.153c-.045.142-.211.246-.32.368-.037-.183-.141-.384-.099-.546.636-2.423 1.289-4.842 1.943-7.26.061-.228.155-.447.235-.67.109.353.37.742.299 1.053-.212.932-.555 1.833-.846 2.902zm-3.1 13.042a51.489 51.489 0 01-.935 2.867c-.056.157-.175.29-.265.435-.051-.183-.175-.38-.142-.546.257-1.318.52-2.636.832-3.942.234-.98.516-1.951.832-2.908.138-.418.415-.791.628-1.185-.11.365-.26.722-.323 1.094a141.35 141.35 0 00-.627 4.185z" fill="#00160A"/><path fill-rule="evenodd" clip-rule="evenodd" d="M223.843 168.767c.518.468.97.894 1.22 1.416.22.463.214 1.033.309 1.555-.364-.275-.735-.542-1.091-.827-.581-.466-1.164-.933-1.725-1.425-.255-.223-.46-.504-.688-.759.495-.09.988-.2 1.487-.254.099-.011.221.191.488.294z" fill="#FFB61D"/><path fill-rule="evenodd" clip-rule="evenodd" d="M208.421 83.447c-.26.413-.442.748-.624 1.083-.001-.36-.059-.73.008-1.076.308-1.592.618-3.185.997-4.762.134-.561.459-1.078.708-1.609.042-.088.142-.148.215-.221.056.174.188.364.156.52-.262 1.3-.545 2.595-.841 3.888-.161.704-.36 1.4-.619 2.177zm-3.177 9.859a72.04 72.04 0 011.251-3.799c.076-.209.301-.364.458-.543-.008.212.014.43-.029.635-.555 2.663-1.117 5.325-1.684 7.986-.027.128-.109.244-.165.366-.047-.135-.143-.272-.134-.403.091-1.363.199-2.724.303-4.242zm-9.223 39.516a70.227 70.227 0 001.158-3.337c.079-.244.055-.527.156-.759.184-.427.425-.829.642-1.241.046.547.25 1.141.107 1.634-.435 1.509-.994 2.982-1.53 4.461-.093.257-.309.47-.469.704.051-.249.158-.503.136-.745-.02-.22-.179-.427-.2-.717zm-4.417-2.562c.207-.14.413-.126.62-.112-.339 1.775-.675 3.55-1.022 5.323a2.978 2.978 0 01-.223.676c-.103.222-.249.424-.377.635-.006-.228-.052-.464-.013-.684.33-1.896.674-3.788 1.015-5.838zm-11.237 62.03c-.336 1.456-.591 2.835-.856 4.214-.033.17-.113.335-.171.503-.045-.187-.145-.379-.127-.556.193-1.879.398-3.758.627-5.632.014-.119.247-.21.378-.314.075.108.21.214.216.326.025.459.01.921-.067 1.459zM229.19 38.42c-.58-.323-1.082-.722-1.584-1.122.396-.322.76-.702 1.2-.943.241-.132.675-.148.911-.017 1.172.653 1.064 1.094-.527 2.081zm-2.247 13.895c.206 1.479.421 2.8.609 4.126.023.162-.102.345-.158.519-.073-.176-.127-.362-.22-.526-.855-1.518-1.032-3.155-.847-4.852.029-.266.12-.525.182-.788.041.241.058.49.131.72.071.225.199.432.303.801zm-12.4 7.454c-.472.717-.944 1.28-1.416 1.842.162-.72.34-1.436.482-2.159.125-.639.209-1.286.315-1.93.047-.286.104-.571.156-.857.154.348.401.685.443 1.046.073.626.02 1.267.02 2.058zM73.808 258.201a109.02 109.02 0 01-.124 1.832c-.206-.093-.554-.143-.597-.285-.216-.724-.44-1.469-.474-2.215-.013-.279.479-.58.741-.872.352.394 1.004.692.454 1.54zM203.384 83.99a146.449 146.449 0 01-1.142 4.7c-.023.09-.208.138-.317.205-.031-.142-.108-.293-.084-.426.162-.895.308-1.796.534-2.677.177-.692.447-1.362.704-2.032.131-.34.323-.657.487-.984-.061.353-.122.706-.182 1.214zm-8.758 56.751c-.186.383-.294.689-.402.995-.15-.299-.447-.609-.423-.893.078-.94.248-1.875.448-2.798.031-.147.399-.222.611-.331.051.134.158.272.145.399a28.202 28.202 0 01-.379 2.628zm31.154-96.577c.233.84.401 1.602.53 2.37.025.144-.109.316-.17.474-.043-.134-.08-.27-.128-.403-.306-.837-.614-1.674-.921-2.51a2.28 2.28 0 01.689.069zM208.731 59.69c.068-.223.214-.369.359-.515.111.51.313 1.023.302 1.532-.008.404-.257.812-.435 1.201-.144.316-.343.606-.518.907.009-.383-.018-.771.033-1.148.086-.636.222-1.266.259-1.976zm88.038 210.079c.437-.283.778-.6 1.162-.671.474-.087.986.031 1.479.059-.366.102-.769.143-1.092.326-.458.261-.855.627-1.28.947-.118-.193-.232-.388-.269-.661zM66.601 252.922c-.054.105-.17.264-.319.301-.767.202-1.543.373-2.315.556.02-.075.026-.202.063-.211a79.543 79.543 0 012.571-.646zm.155.124c.004-.126.073-.348.169-.367.612-.122 1.23-.206 1.847-.294.01-.004.03.084.045.126-.661.18-1.322.359-2.06.535zm100.759.808c.336.617.342 1.239.348 1.857-.227-.618-.453-1.24-.348-1.857zM86.18 257.58c-.05.494-.1.835-.15 1.174-.181-.162-.553-.345-.505-.478.105-.298.424-.569.656-.696zm215.471 24.403c-.533.165-1.066.179-1.597.152-.086 0-.167-.185-.251-.284.121-.119.248-.357.366-.344.496.066.989.205 1.482.476zm-64.71-173.693c.292.27.487.617.682.965-.124.019-.348.072-.357.054-.156-.308-.287-.626-.325-1.019zm-31.388-34.237c.151-.398.302-.641.453-.884.073.09.229.21.205.268-.162.401-.362.79-.55 1.182a3.641 3.641 0 01-.108-.566zM499.114 290.73c-.087.043-.208.034-.255-.031a15.306 15.306 0 01-.666-.938c-.009-.012.111-.109.173-.165.248.351.496.705.748 1.134zM73.266 251.136c.212-.003.346.083.48.17-.407.167-.815.329-1.222.492.089-.125.162-.276.27-.371.114-.094.261-.132.472-.291zm15.189-16.96c.638-.033 1.198.092 1.758.218-.611-.013-1.223-.033-1.758-.218zm161.427 19.678c.071-.187.172-.268.207-.246.351.227.69.469 1.033.708-.414-.102-.827-.205-1.24-.462zM98.685 278.248c.227-.165.38-.205.525-.152.31.099.615.245.923.37-.331.093-.66.239-.992.258-.177.014-.356-.198-.456-.476zm26.349-46.393c-.077-.054-.095-.151-.075-.161a19.48 19.48 0 011.041-.5c.027-.01.109.124.165.191-.351.158-.702.315-1.131.47zm-27.36-6.697l.292 1.846c.045.282.164.637.326.994l.273.235c.162.133.187.126.277.101l.09-.01.08-.019.363-.12.843-.272-.9-.989-1.644-1.766zm284.031 80.833c.304-.176.685-.353 1.067-.529-.047.235-.09.66-.137.66-.285.013-.567-.078-.93-.131zM250.112 199.277c.226-.041.359-.007.356.028-.036.369-.094.739-.146 1.111-.178-.118-.484-.233-.507-.357-.041-.23.085-.469.297-.782zm-34.716 138.974c.272.079.468.324.663.569l-1.144.059c.134-.152.269-.304.481-.628zm216.682.245c-.226.165-.381.205-.527.158-.309-.099-.613-.244-.92-.377.328-.092.66-.238.992-.251.173-.013.353.198.455.47zm-101.96-164.323l1.242-1.172-1.806.201-.745.075a7.939 7.939 0 00-.63.092c-.18.034-.304.091-.48.206l-.257.171-1.012.583 1.121.456c.468.19.747.286 1.086.348l.409.063.497-.478.575-.545zm-3.73 1.618l-.141-.664-.63.253c-.492.197-.826.378-1.124.618a.72.72 0 00-.253.426 1.191 1.191 0 00-.024.161l-.012.142-.145.71.732-.026c.568-.02.807-.052 1.096-.216.472-.268.637-.77.501-1.404zm25.223.493c-.227.013-.4.052-.705.149l-.407.128-1.582.446 1.707.712.435.185c.123.05.226.088.338.125.355.116.687.019 1.041-.239l.349-.255-.15-.405c-.186-.498-.536-.876-1.026-.846zm-48.31-2.827l1.81-1.575-2.882.576a8.234 8.234 0 00-.489.114.864.864 0 00-.382.208l-.154.138-.774.539-2.17 1.503 2.597-.471c.387-.071.625-.111.892-.149l.401-.053.102-.06c.387-.23.637-.417 1.049-.77zm-1.953 2.287l-.343-.731-.575.568c-.137.136-.253.248-.368.357l-1.16 1.08 2.546.262.016-.617c.013-.482.002-.669-.116-.919zm-10.013-8.828l-.732.117c-.187.03-.264.033-.391.009l-.176-.034-.163.072c-.465.206-.869.469-1.354.854a.754.754 0 00-.266.371l-.056.15-.286.618.656.174.032.013c.07.028.112.043.174.057.13.03.262.031.403-.019l.676-.248c.434-.164.727-.285 1.058-.438.283-.133.349-.32.372-.578l.005-.089-.004-.292.052-.737zm1.646 4.536l4.505-2.091-4.704.942c-.481.097-1.014.249-1.766.492l-.169.088-.183.251a.155.155 0 00-.022.049l-.019.122a.246.246 0 00-.002.054l.008.078.021.09.045.161.16.62 1.016-.392c.445-.174.76-.305 1.11-.464zm.345 1.241l-.847-.469v.968c0 .412.113.759.371 1.026.161.159.318.199.51.206.056.002.099.001.169-.004l.195-.012 1.217.016-.765-.946c-.337-.418-.521-.603-.85-.785z" fill="#00160A"/></svg>