<svg width="178" height="145" viewBox="0 0 178 145" fill="none" xmlns="http://www.w3.org/2000/svg">
<path fill-rule="evenodd" clip-rule="evenodd" d="M87.6937 114.753C116.395 114.753 139.663 90.0408 139.663 59.5567C139.663 29.0726 116.395 4.36035 87.6937 4.36035C58.992 4.36035 35.7246 29.0726 35.7246 59.5567C35.7246 90.0408 58.992 114.753 87.6937 114.753Z" fill="#242525"/>
<path d="M139.543 59.4304C139.543 73.4692 134.506 86.9804 125.458 97.2142L87.575 59.4304L139.543 59.4304Z" fill="#2F363D"/>
<path d="M35.6069 59.4304C35.6069 45.3916 40.6436 31.8804 49.6919 21.6466L87.575 59.4304L35.6069 59.4304Z" fill="#2F363D"/>
<path fill-rule="evenodd" clip-rule="evenodd" d="M87.6937 84.112C100.462 84.112 110.813 73.1182 110.813 59.5566C110.813 45.995 100.462 35.0012 87.6937 35.0012C74.925 35.0012 64.574 45.995 64.574 59.5566C64.574 73.1182 74.925 84.112 87.6937 84.112Z" fill="#FFD600"/>
<path d="M15.228 105.385C12.828 105.385 10.776 104.965 9.072 104.125C7.392 103.285 6.036 102.193 5.004 100.849C3.972 99.5053 3.216 98.0533 2.736 96.4933C2.256 94.9093 2.016 93.3853 2.016 91.9213V91.1293C2.016 89.5453 2.256 87.9613 2.736 86.3773C3.24 84.7933 4.008 83.3533 5.04 82.0573C6.072 80.7613 7.416 79.7173 9.072 78.9253C10.728 78.1333 12.708 77.7373 15.012 77.7373C17.364 77.7373 19.38 78.1453 21.06 78.9613C22.74 79.7773 24.072 80.9173 25.056 82.3813C26.04 83.8453 26.64 85.5733 26.856 87.5653H23.256C23.064 86.0773 22.584 84.8533 21.816 83.8933C21.048 82.9093 20.076 82.1773 18.9 81.6973C17.748 81.2173 16.452 80.9773 15.012 80.9773C13.452 80.9773 12.084 81.2533 10.908 81.8053C9.732 82.3333 8.748 83.0893 7.956 84.0733C7.188 85.0333 6.6 86.1493 6.192 87.4213C5.808 88.6933 5.616 90.0733 5.616 91.5613C5.616 92.9773 5.808 94.3213 6.192 95.5933C6.6 96.8653 7.2 97.9933 7.992 98.9773C8.808 99.9613 9.816 100.741 11.016 101.317C12.216 101.869 13.62 102.145 15.228 102.145C17.484 102.145 19.38 101.581 20.916 100.453C22.452 99.3253 23.388 97.6933 23.724 95.5573H27.324C27.084 97.3573 26.472 99.0013 25.488 100.489C24.528 101.977 23.184 103.165 21.456 104.053C19.752 104.941 17.676 105.385 15.228 105.385ZM40.7852 105.385C39.1052 105.385 37.6292 105.097 36.3572 104.521C35.0852 103.945 34.0052 103.189 33.1172 102.253C32.2532 101.293 31.5932 100.225 31.1372 99.0493C30.7052 97.8733 30.4892 96.6733 30.4892 95.4493V94.8013C30.4892 93.5773 30.7172 92.3773 31.1732 91.2013C31.6292 90.0013 32.3012 88.9333 33.1892 87.9973C34.0772 87.0373 35.1572 86.2813 36.4292 85.7293C37.7012 85.1533 39.1532 84.8653 40.7852 84.8653C42.4172 84.8653 43.8692 85.1533 45.1412 85.7293C46.4132 86.2813 47.4932 87.0373 48.3812 87.9973C49.2692 88.9333 49.9412 90.0013 50.3972 91.2013C50.8532 92.3773 51.0812 93.5773 51.0812 94.8013V95.4493C51.0812 96.6733 50.8532 97.8733 50.3972 99.0493C49.9652 100.225 49.3052 101.293 48.4172 102.253C47.5532 103.189 46.4852 103.945 45.2132 104.521C43.9412 105.097 42.4652 105.385 40.7852 105.385ZM40.7852 102.289C42.2252 102.289 43.4492 101.977 44.4572 101.353C45.4892 100.705 46.2692 99.8413 46.7972 98.7613C47.3492 97.6813 47.6252 96.4693 47.6252 95.1253C47.6252 93.7573 47.3492 92.5333 46.7972 91.4533C46.2452 90.3733 45.4532 89.5213 44.4212 88.8973C43.4132 88.2733 42.2012 87.9613 40.7852 87.9613C39.3932 87.9613 38.1812 88.2733 37.1492 88.8973C36.1172 89.5213 35.3252 90.3733 34.7732 91.4533C34.2212 92.5333 33.9452 93.7573 33.9452 95.1253C33.9452 96.4693 34.2092 97.6813 34.7372 98.7613C35.2892 99.8413 36.0692 100.705 37.0772 101.353C38.1092 101.977 39.3452 102.289 40.7852 102.289Z" fill="white"/>
<path d="M56.2573 104.737V85.5133H58.9933V93.7573H58.5613C58.5613 91.8853 58.8013 90.3013 59.2813 89.0053C59.7853 87.6853 60.5293 86.6773 61.5133 85.9813C62.4973 85.2853 63.7453 84.9373 65.2573 84.9373H65.4013C66.9133 84.9373 68.1613 85.2853 69.1453 85.9813C70.1533 86.6773 70.8973 87.6853 71.3773 89.0053C71.8573 90.3013 72.0973 91.8853 72.0973 93.7573H71.0893C71.0893 91.8853 71.3413 90.3013 71.8453 89.0053C72.3493 87.6853 73.0933 86.6773 74.0773 85.9813C75.0853 85.2853 76.3453 84.9373 77.8573 84.9373H78.0013C79.5133 84.9373 80.7733 85.2853 81.7813 85.9813C82.7893 86.6773 83.5333 87.6853 84.0133 89.0053C84.5173 90.3013 84.7693 91.8853 84.7693 93.7573V104.737H81.3133V93.0013C81.3133 91.4413 80.9293 90.2413 80.1613 89.4013C79.3933 88.5373 78.3253 88.1053 76.9573 88.1053C75.5413 88.1053 74.4013 88.5613 73.5373 89.4733C72.6733 90.3613 72.2413 91.6093 72.2413 93.2173V104.737H68.7853V93.0013C68.7853 91.4413 68.4013 90.2413 67.6333 89.4013C66.8653 88.5373 65.7973 88.1053 64.4293 88.1053C63.0133 88.1053 61.8733 88.5613 61.0093 89.4733C60.1453 90.3613 59.7133 91.6093 59.7133 93.2173V104.737H56.2573ZM99.2692 105.385C97.5892 105.385 96.1372 105.097 94.9132 104.521C93.6892 103.945 92.6932 103.189 91.9252 102.253C91.1572 101.293 90.5812 100.225 90.1972 99.0493C89.8372 97.8733 89.6572 96.6733 89.6572 95.4493V94.8013C89.6572 93.5533 89.8372 92.3413 90.1972 91.1653C90.5812 89.9893 91.1572 88.9333 91.9252 87.9973C92.6932 87.0373 93.6652 86.2813 94.8412 85.7293C96.0412 85.1533 97.4452 84.8653 99.0532 84.8653C101.141 84.8653 102.857 85.3213 104.201 86.2333C105.569 87.1213 106.577 88.2733 107.225 89.6893C107.897 91.1053 108.233 92.6173 108.233 94.2253V95.7733H91.1692V93.1813H105.713L104.921 94.5853C104.921 93.2173 104.705 92.0413 104.273 91.0573C103.841 90.0493 103.193 89.2693 102.329 88.7173C101.465 88.1653 100.373 87.8893 99.0532 87.8893C97.6852 87.8893 96.5452 88.2013 95.6332 88.8253C94.7452 89.4493 94.0732 90.3013 93.6172 91.3813C93.1852 92.4613 92.9692 93.7093 92.9692 95.1253C92.9692 96.4933 93.1852 97.7293 93.6172 98.8333C94.0732 99.9133 94.7692 100.777 95.7052 101.425C96.6412 102.049 97.8292 102.361 99.2692 102.361C100.781 102.361 102.005 102.025 102.941 101.353C103.901 100.681 104.477 99.9013 104.669 99.0133H107.909C107.645 100.333 107.117 101.473 106.325 102.433C105.533 103.393 104.537 104.125 103.337 104.629C102.137 105.133 100.781 105.385 99.2692 105.385Z" fill="#FFD600"/>
<path d="M8.928 136.701V112.869H12.456V136.701H8.928ZM0.936 113.589V110.421H20.448V113.589H0.936ZM31.2227 137.349C29.5427 137.349 28.0667 137.061 26.7947 136.485C25.5227 135.909 24.4427 135.153 23.5547 134.217C22.6907 133.257 22.0307 132.189 21.5747 131.013C21.1427 129.837 20.9267 128.637 20.9267 127.413V126.765C20.9267 125.541 21.1547 124.341 21.6107 123.165C22.0667 121.965 22.7387 120.897 23.6267 119.961C24.5147 119.001 25.5947 118.245 26.8667 117.693C28.1387 117.117 29.5907 116.829 31.2227 116.829C32.8547 116.829 34.3067 117.117 35.5787 117.693C36.8507 118.245 37.9307 119.001 38.8187 119.961C39.7067 120.897 40.3787 121.965 40.8347 123.165C41.2907 124.341 41.5187 125.541 41.5187 126.765V127.413C41.5187 128.637 41.2907 129.837 40.8347 131.013C40.4027 132.189 39.7427 133.257 38.8547 134.217C37.9907 135.153 36.9227 135.909 35.6507 136.485C34.3787 137.061 32.9027 137.349 31.2227 137.349ZM31.2227 134.253C32.6627 134.253 33.8867 133.941 34.8947 133.317C35.9267 132.669 36.7067 131.805 37.2347 130.725C37.7867 129.645 38.0627 128.433 38.0627 127.089C38.0627 125.721 37.7867 124.497 37.2347 123.417C36.6827 122.337 35.8907 121.485 34.8587 120.861C33.8507 120.237 32.6387 119.925 31.2227 119.925C29.8307 119.925 28.6187 120.237 27.5867 120.861C26.5547 121.485 25.7627 122.337 25.2107 123.417C24.6587 124.497 24.3827 125.721 24.3827 127.089C24.3827 128.433 24.6467 129.645 25.1747 130.725C25.7267 131.805 26.5067 132.669 27.5147 133.317C28.5467 133.941 29.7827 134.253 31.2227 134.253ZM53.9668 144.189C53.0788 144.189 52.1788 144.153 51.2668 144.081C50.3788 144.009 49.5268 143.913 48.7108 143.793V140.877C49.5748 140.997 50.4748 141.093 51.4108 141.165C52.3708 141.261 53.2708 141.309 54.1108 141.309C55.8628 141.309 57.2548 141.069 58.2868 140.589C59.3428 140.133 60.0988 139.401 60.5548 138.393C61.0348 137.409 61.2748 136.137 61.2748 134.577V130.905L62.4268 128.169C62.3548 130.113 61.9468 131.733 61.2028 133.029C60.4588 134.301 59.4868 135.261 58.2868 135.909C57.1108 136.533 55.8028 136.845 54.3628 136.845C53.0188 136.845 51.7828 136.593 50.6548 136.089C49.5508 135.561 48.5908 134.841 47.7748 133.929C46.9828 133.017 46.3588 131.973 45.9028 130.797C45.4708 129.597 45.2548 128.337 45.2548 127.017V126.369C45.2548 125.025 45.4828 123.777 45.9388 122.625C46.3948 121.449 47.0308 120.429 47.8468 119.565C48.6628 118.701 49.6348 118.029 50.7628 117.549C51.9148 117.069 53.1748 116.829 54.5428 116.829C56.1508 116.829 57.5668 117.177 58.7908 117.873C60.0148 118.545 60.9748 119.541 61.6708 120.861C62.3908 122.157 62.7868 123.753 62.8588 125.649L61.8508 125.685V117.477H64.5868V134.433C64.5868 136.737 64.2268 138.597 63.5068 140.013C62.8108 141.453 61.6828 142.509 60.1228 143.181C58.5868 143.853 56.5348 144.189 53.9668 144.189ZM55.0108 133.677C56.1628 133.677 57.2068 133.425 58.1428 132.921C59.1028 132.417 59.8588 131.697 60.4108 130.761C60.9868 129.801 61.2748 128.661 61.2748 127.341V125.685C61.2748 124.389 60.9748 123.297 60.3748 122.409C59.7988 121.521 59.0428 120.849 58.1068 120.393C57.1708 119.937 56.1508 119.709 55.0468 119.709C53.7988 119.709 52.6948 119.997 51.7348 120.573C50.7748 121.149 50.0308 121.965 49.5028 123.021C48.9748 124.053 48.7108 125.277 48.7108 126.693C48.7108 128.109 48.9748 129.345 49.5028 130.401C50.0548 131.457 50.7988 132.273 51.7348 132.849C52.6948 133.401 53.7868 133.677 55.0108 133.677ZM79.1598 137.349C77.4798 137.349 76.0278 137.061 74.8038 136.485C73.5798 135.909 72.5838 135.153 71.8158 134.217C71.0478 133.257 70.4718 132.189 70.0878 131.013C69.7278 129.837 69.5478 128.637 69.5478 127.413V126.765C69.5478 125.517 69.7278 124.305 70.0878 123.129C70.4718 121.953 71.0478 120.897 71.8158 119.961C72.5838 119.001 73.5558 118.245 74.7318 117.693C75.9318 117.117 77.3358 116.829 78.9438 116.829C81.0318 116.829 82.7478 117.285 84.0918 118.197C85.4598 119.085 86.4678 120.237 87.1158 121.653C87.7878 123.069 88.1238 124.581 88.1238 126.189V127.737H71.0598V125.145H85.6038L84.8118 126.549C84.8118 125.181 84.5958 124.005 84.1638 123.021C83.7318 122.013 83.0838 121.233 82.2198 120.681C81.3558 120.129 80.2638 119.853 78.9438 119.853C77.5758 119.853 76.4358 120.165 75.5238 120.789C74.6358 121.413 73.9638 122.265 73.5078 123.345C73.0758 124.425 72.8598 125.673 72.8598 127.089C72.8598 128.457 73.0758 129.693 73.5078 130.797C73.9638 131.877 74.6598 132.741 75.5958 133.389C76.5318 134.013 77.7198 134.325 79.1598 134.325C80.6718 134.325 81.8958 133.989 82.8318 133.317C83.7918 132.645 84.3678 131.865 84.5598 130.977H87.7998C87.5358 132.297 87.0078 133.437 86.2158 134.397C85.4238 135.357 84.4278 136.089 83.2278 136.593C82.0278 137.097 80.6718 137.349 79.1598 137.349ZM100.519 136.917C99.0788 136.917 97.8308 136.713 96.7748 136.305C95.7428 135.897 94.9388 135.201 94.3628 134.217C93.8108 133.209 93.5348 131.853 93.5348 130.149V111.645H96.8468V130.581C96.8468 131.613 97.1228 132.417 97.6748 132.993C98.2508 133.545 99.0548 133.821 100.087 133.821H103.471V136.917H100.519ZM90.2228 120.069V117.477H103.471V120.069H90.2228ZM108.359 136.701V110.421H111.815V126.117H110.951C110.951 124.221 111.191 122.589 111.671 121.221C112.175 119.829 112.943 118.761 113.975 118.017C115.007 117.273 116.327 116.901 117.935 116.901H118.079C120.383 116.901 122.123 117.669 123.299 119.205C124.475 120.717 125.063 122.889 125.063 125.721V136.701H121.607V125.001C121.607 123.441 121.163 122.229 120.275 121.365C119.411 120.501 118.283 120.069 116.891 120.069C115.355 120.069 114.119 120.585 113.183 121.617C112.271 122.625 111.815 123.957 111.815 125.613V136.701H108.359ZM139.558 137.349C137.878 137.349 136.426 137.061 135.202 136.485C133.978 135.909 132.982 135.153 132.214 134.217C131.446 133.257 130.87 132.189 130.486 131.013C130.126 129.837 129.946 128.637 129.946 127.413V126.765C129.946 125.517 130.126 124.305 130.486 123.129C130.87 121.953 131.446 120.897 132.214 119.961C132.982 119.001 133.954 118.245 135.13 117.693C136.33 117.117 137.734 116.829 139.342 116.829C141.43 116.829 143.146 117.285 144.49 118.197C145.858 119.085 146.866 120.237 147.514 121.653C148.186 123.069 148.522 124.581 148.522 126.189V127.737H131.458V125.145H146.002L145.21 126.549C145.21 125.181 144.994 124.005 144.562 123.021C144.13 122.013 143.482 121.233 142.618 120.681C141.754 120.129 140.662 119.853 139.342 119.853C137.974 119.853 136.834 120.165 135.922 120.789C135.034 121.413 134.362 122.265 133.906 123.345C133.474 124.425 133.258 125.673 133.258 127.089C133.258 128.457 133.474 129.693 133.906 130.797C134.362 131.877 135.058 132.741 135.994 133.389C136.93 134.013 138.118 134.325 139.558 134.325C141.07 134.325 142.294 133.989 143.23 133.317C144.19 132.645 144.766 131.865 144.958 130.977H148.198C147.934 132.297 147.406 133.437 146.614 134.397C145.822 135.357 144.826 136.089 143.626 136.593C142.426 137.097 141.07 137.349 139.558 137.349ZM153.429 136.701V117.477H156.165V125.397H156.021C156.021 122.589 156.633 120.537 157.857 119.241C159.105 117.921 160.965 117.261 163.437 117.261H164.085V120.357H162.861C160.941 120.357 159.465 120.873 158.433 121.905C157.401 122.913 156.885 124.377 156.885 126.297V136.701H153.429Z" fill="white"/>
</svg>
