<svg fill="none" xmlns="http://www.w3.org/2000/svg" viewBox="470.12 21.49 151.5 144.94"> <rect width="177" height="181.909" transform="translate(452 0.027832)" fill="none"/> <path fill-rule="evenodd" clip-rule="evenodd" d="M509.453 157.063C509.234 157.199 508.951 157.154 508.783 156.956C507.771 156.046 506.63 155.311 505.591 154.435C505.036 153.961 504.444 153.533 503.82 153.158C503.365 152.888 503.023 152.466 502.587 152.158L502.465 152.077C501.931 151.742 501.498 151.259 500.984 150.882C500.55 150.565 500.237 150.094 499.802 149.754C499.175 149.252 498.573 148.718 497.998 148.153C497.587 147.837 497.236 147.447 496.961 147.001C496.899 146.874 496.786 146.847 496.704 146.768C496.342 146.442 496 146.093 495.679 145.723C495.021 144.922 494.289 144.186 493.644 143.376C493.177 142.787 492.677 142.231 492.194 141.658C491.729 141.107 491.274 140.546 490.831 139.976C489.787 138.646 488.82 137.253 487.935 135.806C487.255 134.665 486.639 133.485 486.089 132.272C485.605 131.308 485.184 130.312 484.828 129.29C484.57 128.465 484.194 127.673 484.013 126.839C483.842 126.053 483.629 125.271 483.44 124.494C483.003 122.696 482.637 120.885 482.343 119.061C482.168 117.988 482.014 116.904 481.824 115.837C481.6 114.586 481.516 113.318 481.297 112.066C481.169 111.333 481.13 110.557 481.046 109.805C480.965 109.077 480.983 108.341 480.857 107.618C480.756 106.893 480.691 106.163 480.662 105.431C480.613 104.752 480.408 104.037 480.626 103.34C480.284 102.853 480.519 102.288 480.463 101.764C480.408 101.241 480.387 100.709 480.302 100.2C480.215 99.6761 480.14 99.1393 480.068 98.6184C479.922 97.5605 479.678 96.5232 479.53 95.4719C479.44 94.8304 479.168 94.2635 479.027 93.6476C478.75 92.4695 478.359 91.3227 477.861 90.2241C477.653 89.787 477.51 89.3198 477.439 88.8386C477.393 88.4722 477.06 88.3162 476.963 87.9823C476.804 87.4418 476.558 86.9293 476.358 86.4018C476.323 86.2226 476.197 86.0768 476.028 86.0205L476.164 85.5572C476.091 85.3683 476.017 85.5925 475.918 85.5326C475.816 85.3238 475.654 85.1253 475.683 84.8407C475.711 84.5732 475.415 84.494 475.352 84.245C475.214 83.7038 474.632 83.3354 474.754 82.6804C474.354 82.3086 474.219 81.7697 473.947 81.3169C473.803 81.1052 473.738 80.8487 473.761 80.5931L473.768 80.5342C473.813 80.2842 473.334 80.2553 473.519 79.9365C472.895 79.2504 472.864 78.3087 472.614 77.4878C472.212 76.1705 471.71 74.8772 471.523 73.4807C471.429 72.7821 471.135 72.0839 471.026 71.374C470.782 69.7783 470.432 68.1971 470.374 66.5709C470.35 65.8992 470.181 65.2328 470.164 64.5603L470.144 63.7831C470.116 62.6172 470.1 61.4507 470.156 60.2846C470.129 60.0142 470.176 59.7414 470.292 59.497C470.462 59.2258 470.175 58.9805 470.2 58.682C470.228 58.3276 470.42 58.022 470.386 57.6343C470.368 57.4208 470.477 57.1029 470.456 56.8551C470.388 56.0495 470.778 55.3022 470.691 54.4987C470.707 54.1971 470.789 53.9031 470.93 53.638C471.242 52.7248 471.131 51.7143 471.563 50.8457C471.77 50.4161 471.876 49.9435 471.875 49.4653L471.871 49.2804C471.87 49.1435 471.876 49.0117 471.954 48.934C472.283 48.6096 472.272 48.1512 472.409 47.76C472.555 47.3411 472.558 46.8748 472.761 46.4577C473.008 46.0582 473.183 45.6168 473.28 45.1541C473.352 44.3526 473.732 43.6905 474.016 42.9859C474.157 42.6339 474.167 42.1865 474.605 41.9849C474.828 41.8823 474.404 41.5281 474.724 41.3768L474.761 41.3614C474.991 41.2778 475.016 41.08 474.997 40.8345C474.98 40.6099 475.37 40.5275 475.303 40.2889C475.237 40.0503 475.245 39.7219 475.373 39.7035C475.696 39.6559 475.444 39.2589 475.711 39.2405C475.739 39.231 475.76 39.209 475.77 39.1807C475.999 38.3715 476.631 37.7878 476.9 36.9864C477.081 36.5116 477.348 36.0762 477.686 35.7032C477.976 35.3365 478.236 34.9456 478.464 34.5348C478.877 33.8494 479.472 33.3224 479.874 32.6386C479.983 32.4537 480.471 32.6106 480.287 32.157C480.597 32.104 480.561 31.777 480.712 31.6041C480.866 31.4808 481.038 31.3827 481.221 31.3133C481.404 30.8961 481.68 30.5289 482.026 30.2417C482.66 29.5748 483.334 28.9497 484.044 28.3702L484.63 27.8948C485.413 27.261 486.215 26.6475 487.166 26.2852C487.41 26.1921 487.353 25.9209 487.559 25.817C488.753 25.2052 489.883 24.4703 491.19 24.0795C491.737 23.9155 492.246 23.5409 492.806 23.3686C493.93 23.0224 494.999 22.5234 496.187 22.3418C496.891 22.2347 497.603 22.0084 498.321 21.8803C499.802 21.5711 501.313 21.4464 502.823 21.5088L503.751 21.5698C504.576 21.6243 505.4 21.6863 506.221 21.8113C506.609 21.8705 506.959 22.0639 507.32 22.0825C507.673 22.1001 508.018 22.1926 508.334 22.3541C508.584 22.4775 508.847 22.2847 509.108 22.4615C509.302 22.6411 509.568 22.7109 509.82 22.6511L509.871 22.6374C510.019 22.5817 510.258 22.7777 510.455 22.8625C510.746 22.9594 511.027 23.0873 511.292 23.244C511.494 23.3884 511.832 23.1031 511.923 23.4882C512.239 23.3165 512.475 23.555 512.734 23.6587L512.77 23.6719C513.03 23.7622 513.279 23.889 513.532 23.9997L514.378 24.3688C514.615 24.5148 514.872 24.6213 515.141 24.6842C515.641 24.7143 516.037 25.03 516.519 25.1259C517.052 25.2747 517.564 25.4907 518.045 25.7688C518.479 25.9815 518.977 25.8777 519.409 26.1382C519.816 26.4227 520.275 26.6172 520.759 26.7094C521.255 26.7597 521.669 27.0869 522.112 27.1148L522.195 27.1163C522.762 27.1043 523.142 27.52 523.637 27.5759C524.715 27.6976 525.719 28.1672 526.775 28.3098C528.107 28.4898 529.409 28.8387 530.757 28.9529C531.632 29.0272 532.515 29.073 533.391 29.1476C534.27 29.1871 535.15 29.1499 536.022 29.0363C537.114 28.9246 538.196 28.7225 539.257 28.4319C540.328 28.1519 541.345 27.7081 542.407 27.4121C542.892 27.277 543.341 27.0534 543.833 26.9325C544.363 26.8024 544.844 26.4596 545.375 26.3274C546.702 25.9965 547.919 25.2991 549.288 25.1204C550.866 24.4129 552.591 24.2893 554.229 23.8145C554.991 23.5929 555.807 23.5767 556.603 23.4755L556.774 23.4525C558.183 23.2505 559.603 23.1954 561.022 23.1266C562.325 23.0743 563.629 23.1101 564.927 23.2339C565.862 23.315 566.793 23.4427 567.728 23.5058C568.107 23.5316 568.426 23.8677 568.83 23.7018C569.608 24.0792 570.515 23.9566 571.286 24.3635C571.857 24.2965 572.332 24.5939 572.805 24.8355C573.165 25.0207 573.566 24.8445 573.921 25.0853C574.239 25.3367 574.615 25.4974 575.013 25.5513C575.686 25.5667 576.214 25.9173 576.788 26.1562C578.122 26.7114 579.447 27.2903 580.763 27.893C581.194 28.0907 581.708 28.1377 582.033 28.5626C582.318 28.9354 582.887 28.8371 583.156 29.2653C583.255 29.4211 583.455 29.1898 583.62 29.3242C583.943 29.5863 584.424 29.5392 584.697 29.9556C584.899 30.264 585.396 30.1701 585.614 30.5379L585.643 30.591C585.764 30.851 586.284 30.3842 586.322 30.9211C586.824 31.0536 587.197 31.4157 587.616 31.6936C587.964 31.9232 588.423 31.9123 588.704 32.3104C588.944 32.6496 589.526 32.5374 589.702 33.0128C590.313 33.1289 590.683 33.6822 591.245 33.9119C591.668 34.1118 592.062 34.3689 592.417 34.6764C592.988 35.1227 593.572 35.5517 594.164 35.9651C594.375 36.1172 594.579 36.2812 594.773 36.4564C594.882 36.5519 594.884 36.7197 595.051 36.7907C596.109 37.2416 596.922 38.0704 597.764 38.8192C598.252 39.202 598.709 39.6242 599.131 40.0817L599.27 40.2355C599.391 40.387 599.675 40.5024 599.77 40.6999C600.035 41.2499 600.515 41.5825 600.937 41.9604L601.006 42.0239C601.245 42.2335 601.452 42.4777 601.622 42.7486C601.655 42.8003 601.654 42.8994 601.695 42.9178C602.444 43.2592 602.798 44.0105 603.317 44.5852C603.82 45.1408 604.222 45.7925 604.737 46.3332C605.775 47.4234 616.248 64.5066 617.285 67.3151L617.582 68.1189C617.878 68.924 618.168 69.7333 618.423 70.5514L618.639 71.2478C618.856 71.9454 619.066 72.6468 619.237 73.3525L619.467 74.2946C619.923 76.1798 620.362 78.0706 620.684 79.9895C620.97 81.7016 621.155 83.4225 621.345 85.1456C621.466 86.2519 621.539 87.3543 621.57 88.4648C621.62 90.2394 621.631 92.0142 621.604 93.7892C621.577 95.4601 621.201 97.0924 621.26 98.76C620.871 99.7071 621.103 100.782 620.683 101.722C620.786 102.242 620.536 102.718 620.436 103.194C620.333 103.686 620.352 104.225 620.074 104.692C619.947 104.904 620.103 105.215 619.945 105.473C619.784 105.683 619.723 105.956 619.778 106.217C619.425 106.312 619.774 106.621 619.6 106.816C619.413 107.029 619.3 107.299 619.279 107.585C619.266 108.231 618.815 108.748 618.779 109.328C618.744 109.92 618.381 110.362 618.292 110.883L618.279 110.982C618.21 111.674 617.647 112.103 617.52 112.746C617.509 112.803 617.37 112.831 617.289 112.875C617.287 113.024 617.449 113.02 617.54 113.153C617.336 113.279 617.15 113.433 616.987 113.612C616.843 113.871 616.725 114.145 616.635 114.429L616.982 115.108C616.758 115.419 616.762 115.741 616.494 115.969C616.378 116.068 616.37 116.436 616.316 116.681C616.245 117.003 615.806 117.123 615.86 117.397C615.885 117.705 615.807 118.013 615.639 118.27C614.608 120.796 613.566 123.318 612.514 125.835C612.403 126.105 612.397 126.469 612.032 126.573C612.333 127.03 611.732 127.062 611.67 127.37C611.574 127.651 611.418 127.907 611.214 128.119C610.907 128.529 610.79 129.086 610.572 129.572C610.475 129.926 610.284 130.245 610.02 130.492C609.755 130.69 609.716 131.112 609.489 131.417C609.182 131.779 608.922 132.181 608.718 132.614C608.624 132.934 608.444 133.22 608.199 133.441C607.986 133.611 608.061 134.057 607.688 134.148C607.489 134.718 607.067 135.129 606.726 135.599L606.663 135.688C605.815 136.902 604.897 138.063 603.913 139.164C603.094 140.092 602.29 141.035 601.461 141.955C601.192 142.251 600.91 142.544 600.623 142.82C599.615 143.843 598.552 144.808 597.44 145.711C596.432 146.483 595.456 147.305 594.412 148.034C593.857 148.422 593.369 148.934 592.822 149.354C591.534 150.345 590.222 151.299 588.863 152.184C587.701 153.011 586.464 153.72 585.169 154.302C584.82 154.442 584.511 154.684 584.17 154.848C583.764 154.99 583.37 155.162 582.988 155.362C582.531 155.67 582.009 155.824 581.553 156.104C581.199 156.321 580.735 156.077 580.431 156.527C580.209 156.855 579.632 156.616 579.358 156.996C578.801 156.914 578.448 157.42 577.914 157.51L577.844 157.519C577.288 157.572 576.761 157.93 576.221 158.154C575.694 158.411 575.15 158.631 574.594 158.813C573.563 159.083 572.622 159.609 571.61 159.897C570.645 160.171 569.734 160.664 568.721 160.731C568.482 160.746 568.489 160.962 568.316 161.023C568.136 161.086 567.966 160.992 567.799 161.072C567.114 161.373 566.407 161.618 565.684 161.803C564.668 162.1 563.64 162.369 562.629 162.674C561.058 163.121 559.465 163.483 557.856 163.757C556.811 163.953 555.76 164.111 554.711 164.28L553.25 164.518C552.519 164.636 551.787 164.751 551.055 164.852C550.123 164.981 549.184 165.045 548.251 165.162C547.513 165.254 546.776 165.378 546.04 165.502C545.024 165.672 543.999 165.807 542.985 165.97C541.547 166.195 540.097 166.336 538.644 166.394C537.908 166.446 537.17 166.449 536.434 166.404C536.024 166.368 535.613 166.358 535.202 166.374L534.996 166.384C534.04 166.451 533.125 166.251 532.193 166.169C531.906 166.143 531.642 166.054 531.373 166L531.258 165.98C531.027 165.944 530.805 165.891 530.58 165.841L530.411 165.805C529.613 165.638 528.844 165.329 528.025 165.269L527.871 165.261C527.813 165.261 527.755 165.247 527.703 165.22C526.903 164.755 525.963 164.72 525.134 164.329L524.989 164.256C524.22 163.845 523.297 163.85 522.539 163.38C521.959 163.477 521.528 163.028 521.012 162.932C519.679 162.684 518.512 162.005 517.284 161.486L517.124 161.42C515.842 160.898 514.585 160.315 513.314 159.767C512.443 159.328 511.609 158.817 510.82 158.238C510.655 158.077 510.47 157.938 510.27 157.825C509.905 157.701 509.608 157.424 509.453 157.063Z" fill="#FFD600" fill-opacity="0.57"/> <path fill-rule="evenodd" clip-rule="evenodd" d="M528.016 83.2657C527.119 87.0548 524.882 90.0091 521.413 92.3996C522.3 89.7577 523.445 86.6664 524.332 84.0244C523.477 85.8268 521.938 87.5946 520.224 88.5554C521.304 84.5791 523.568 81.4174 523.568 76.3774C523.568 74.5651 521.656 73.1653 521.73 72.4282C521.806 71.6826 522.193 71.0156 522.493 70.3324C524.175 66.5093 528.621 84.8335 528.016 83.2657Z" fill="white"/> <path fill-rule="evenodd" clip-rule="evenodd" d="M596.563 50.1562C596.522 50.1518 596.481 50.1467 596.44 50.1409C596.489 50.0817 596.529 50.0857 596.563 50.1562ZM569.426 107.076C569.256 107.227 569.086 107.376 568.917 107.525C568.776 107.525 568.218 106.552 567.441 105.198C566.726 103.95 565.826 102.381 564.897 100.952C564.085 99.7047 563.198 98.5799 562.561 97.7733C561.983 97.04 561.611 96.5696 561.693 96.5088C563.485 95.1835 565.353 93.9525 567.22 92.7225C570.235 90.7354 573.247 88.7507 575.929 86.374C583.091 80.0264 588.075 72.0532 591.059 65.2115C593.576 59.4401 594.934 54.8789 595.692 52.3347C596.064 51.0841 596.291 50.3209 596.44 50.1409C594.874 49.9199 593.483 48.6808 593.06 47.1134C592.627 45.5049 593.241 43.6538 594.541 42.6527C595.994 41.5335 596.467 39.5208 596.612 37.6608C596.642 37.2774 596.663 36.8906 596.684 36.5032C596.765 35.0112 596.847 33.5104 597.446 32.1629C597.68 31.6359 598.083 31.0869 598.646 31.0739C599.546 31.053 599.869 32.2756 599.905 33.1997L600.067 37.3424C600.446 36.6483 601.561 36.8207 602.017 37.4647C602.472 38.1086 602.462 38.9715 602.432 39.7671C602.644 38.0012 603.331 36.298 604.397 34.8955C604.731 34.4553 605.234 34.0031 605.752 34.1717C606.3 34.3499 606.435 35.0716 606.454 35.6616C606.618 40.7801 605.127 45.9404 602.271 50.1377C601.72 50.9476 601.422 51.8859 601.225 52.8599C601.297 53.5425 601.33 54.2784 601.249 54.8925C600.329 61.8982 598.799 68.8192 596.683 75.5458C595.424 79.5478 593.921 83.5495 591.396 86.8592C590.063 88.6046 588.474 90.1215 586.884 91.6221C582.012 96.2208 576.093 101.427 570.854 106.034C570.144 106.659 569.447 107.272 568.766 107.871C568.73 107.871 568.969 107.594 569.426 107.076Z" fill="white"/> <path d="M516.496 130.197C516.908 131.403 517.945 132.943 517.945 132.943C517.945 132.943 510.731 143.417 507.983 149.401C505.429 154.962 502.851 167.839 494.938 160.108C498.707 149.151 502.5 138.136 507.983 127.971C510.477 123.348 512.656 121.707 512.656 121.707C512.656 121.707 515.054 125.981 516.496 130.197Z" fill="white"/> <path fill-rule="evenodd" clip-rule="evenodd" d="M524.4 68.0552C523.866 68.5254 524.325 69.4443 524.911 69.8453C525.496 70.2463 526.256 70.5501 526.457 71.2424C525.565 71.2985 524.76 70.5233 523.871 70.6258C522.889 70.7391 522.31 71.9418 522.498 72.9375C522.687 73.9332 523.412 74.7246 524.16 75.3869C525.327 76.4189 526.632 77.286 528.027 77.9562C528.538 78.2015 529.104 78.9432 528.6 79.2025C528.131 78.927 527.662 78.6515 527.193 78.3759C527.976 80.8776 528.785 83.4301 530.314 85.5373C531.844 87.6444 534.253 89.2633 536.809 89.1118C537.302 89.0826 538.015 89.1914 537.968 89.6957C537.637 89.7746 537.305 89.8536 536.974 89.9326C537.998 90.8272 539.459 91.046 540.784 90.8156C542.11 90.5852 543.335 89.9571 544.523 89.3106C546.906 88.0138 549.284 86.5681 551.016 84.4458C552.204 82.9894 553.043 81.2659 553.733 79.5034C555.918 73.926 556.703 67.7777 555.991 61.8109C555.956 61.5111 555.779 61.1142 555.499 61.2073C548.717 63.464 541.073 62.8428 534.722 59.5189C533.348 58.7998 531.982 57.9088 531.189 56.551C534.129 58.4112 537.334 59.8292 540.67 60.7456C543.94 61.6439 547.376 62.0595 550.724 61.5424C554.071 61.0252 557.331 59.5248 559.661 57.0043C562.836 53.569 564.001 48.5336 563.547 43.8209C563.094 39.1083 561.18 34.6651 558.873 30.564C558.211 33.3637 555.86 35.502 553.235 36.523C550.61 37.5439 547.729 37.6051 544.925 37.4642C542.122 37.3232 539.309 36.9931 536.516 37.2781C534.786 37.4545 532.965 37.9336 531.802 39.2593C530.031 41.2774 530.421 44.3831 530.921 47.0501C530.143 46.6282 529.714 45.6243 529.938 44.751C526.831 45.3392 524.57 48.3091 523.775 51.4476C522.981 54.5861 523.367 57.8962 523.757 61.114C523.923 62.4798 524.089 63.8456 524.254 65.2115C524.356 66.0454 524.483 66.9393 525.043 67.5526C526.805 69.4831 528.038 71.9165 528.567 74.5054C530.465 71.1732 531.786 67.4955 532.449 63.6959C532.598 62.8402 532.727 61.9454 533.206 61.2289C533.686 60.5124 534.644 60.0443 535.401 60.4332C532.382 65.1639 532.247 71.577 528.515 75.7379C527.903 74.1576 527.291 72.5774 526.679 70.9971C526.212 69.7914 525.606 68.4465 524.4 68.0552Z" fill="white"/> <path fill-rule="evenodd" clip-rule="evenodd" d="M568.863 115.022C566.468 116.78 563.999 118.434 561.467 119.977C560.912 123.957 559.619 131.607 558.622 138.054C558.169 140.986 558.169 143.481 557.782 145.532C556.993 149.702 553.684 151.919 549.705 151.717C526.421 150.535 526.074 163.222 525.181 155.027C524.288 146.832 523.884 138.58 523.972 130.334C522.175 131.696 520.377 133.057 518.579 134.418C518.001 133.526 512.948 125.147 513.205 122.094C513.484 118.765 517.077 113.931 521.18 110.125C523.736 107.754 526.723 106.027 528.516 104.562C529.241 103.97 533.017 100.461 533.892 97.0347C534.808 93.4487 532.845 89.942 534.56 89.4725C535.914 89.102 536.779 90.2011 538.299 90.9008C539.468 91.4387 541.397 90.4828 541.849 91.2431C542.301 92.0034 541.701 95.008 542.847 96.1628C544.969 98.3031 549.35 98.6616 549.705 98.6228C554.447 98.1057 559.409 95.888 560.84 96.4397C565.759 98.3358 569.495 107.858 570.294 111.125C570.476 111.87 570.626 112.675 570.355 113.391C570.087 114.097 569.463 114.582 568.863 115.022Z" fill="white"/> <path fill-rule="evenodd" clip-rule="evenodd" d="M563.121 98.0961C562.974 97.9006 562.831 97.7285 562.696 97.5768C562.045 96.8437 561.583 96.5905 561.694 96.5089C566.38 93.0425 571.587 90.222 575.929 86.3741C583.091 80.0265 588.075 72.0533 591.059 65.2116C593.343 59.9758 590.096 71.9875 582.526 83.5443C576.301 93.049 563.376 98.4333 563.121 98.0961Z" fill="#E7EAEE"/> <path fill-rule="evenodd" clip-rule="evenodd" d="M568.863 115.022C569.463 114.582 570.087 114.097 570.355 113.391C570.626 112.675 570.476 111.87 570.294 111.125C568.924 105.522 565.887 100.361 561.694 96.5089C579.132 87.6229 592.33 70.4172 596.654 50.9339C592.884 62.0174 587.824 72.8238 580.212 81.586C572.6 90.3482 562.203 96.9465 550.829 98.187C548.299 98.463 545.476 98.3807 543.577 96.6431C541.677 94.9055 541.736 91.0134 544.154 90.1998C548.702 88.6695 552.337 84.883 554.391 80.4458C556.444 76.0086 557.031 70.9717 556.764 66.0669C556.642 63.8337 556.522 61.1792 558.26 59.8304C562.659 56.4178 564.764 50.4793 564.514 44.8259C564.263 39.1724 561.911 33.7964 558.787 29.1333C557.739 32.4401 555.053 35.1507 551.814 36.1696C549.098 37.0237 546.25 36.7217 543.391 36.4186C541.997 36.2707 540.601 36.1227 539.216 36.1082C534.991 36.0641 529.975 38.1993 529.505 42.5088C529.351 43.9195 528.109 44.7344 526.882 45.5391C526.483 45.8008 526.085 46.0615 525.728 46.3412C522.476 48.883 522.186 53.767 522.693 57.9292C522.766 58.5294 522.849 59.135 522.932 59.7434C523.425 63.3533 523.932 67.0607 522.493 70.3324C522.429 70.4774 522.362 70.6217 522.294 70.7661C522.043 71.3023 521.79 71.8409 521.73 72.4282C521.559 74.1141 522.87 75.2433 524.219 76.4053C524.935 77.022 525.662 77.648 526.183 78.3713C527.471 80.1582 527.441 82.6687 526.657 84.7407C525.873 86.8127 524.442 88.5465 523.037 90.2375C524.537 87.1989 525.309 83.7845 525.265 80.3782L521.266 87.2713C522.667 83.8218 523.459 80.1125 523.591 76.3775L520.352 88.3065C522.066 87.3456 523.477 85.8268 524.331 84.0245L521.672 91.9502C524.686 89.9334 526.975 86.8006 528.016 83.2657C528.621 84.8335 529.648 86.2271 530.953 87.251C535.481 90.8026 535.134 99.0645 530.325 102.203C520.772 108.437 513.466 117.806 507.983 127.971C502.5 138.137 498.707 149.152 494.938 160.108C500.368 147.219 506.262 134.536 512.604 122.094C514.082 126.437 516.095 130.589 518.579 134.418L523.972 130.334C523.884 138.58 524.288 146.832 525.181 155.027C526.242 155.143 526.493 153.546 526.326 152.464C524.725 142.109 524.484 131.532 525.613 121.111C524.548 121.809 524.527 123.264 524.508 124.627C524.504 124.885 524.501 125.139 524.49 125.385C524.344 128.762 521.89 131.901 518.709 132.778C517.069 130.646 515.404 128.47 514.47 125.927C513.537 123.385 513.435 120.372 514.849 118.076C518.647 111.907 524.115 106.835 530.477 103.579C533.308 106.403 536.664 108.669 540.311 110.219C541.47 110.711 542.805 111.129 543.947 110.596C544.736 110.228 545.277 109.47 545.747 108.722C547.53 105.891 548.828 102.74 549.567 99.4551C552.985 98.9567 556.368 98.2138 559.685 97.2336C561.028 96.837 562.317 97.9558 563.224 99.0457C566.038 102.427 568.12 106.446 569.277 110.731C569.513 111.604 569.705 112.564 569.348 113.393C569.061 114.06 568.466 114.524 567.887 114.945C565.719 116.522 563.426 117.917 561.039 119.113C561.291 116.453 560.629 113.711 559.197 111.478C561.454 117.7 560.26 124.3 559.055 130.967C558.134 136.06 557.206 141.193 557.803 146.227L561.467 119.977C563.999 118.434 566.468 116.78 568.863 115.022ZM524.4 68.055C525.606 68.4463 526.212 69.7911 526.679 70.9969L528.515 75.7376C530.597 73.4167 531.559 70.395 532.527 67.3553C533.295 64.9457 534.066 62.5249 535.401 60.433C534.644 60.0441 533.686 60.5121 533.206 61.2287C532.759 61.8972 532.617 62.7209 532.479 63.5232C532.469 63.5808 532.459 63.6383 532.449 63.6956C531.786 67.4953 530.465 71.173 528.567 74.5052C528.038 71.9163 526.805 69.4828 525.043 67.5524C524.483 66.9391 524.356 66.0452 524.254 65.2112L523.757 61.1138C523.367 57.8959 522.981 54.5859 523.776 51.4474C524.57 48.3089 526.831 45.339 529.938 44.7508C529.714 45.6241 530.143 46.6279 530.921 47.0498C530.422 44.3828 530.031 41.2772 531.802 39.2591C532.965 37.9334 534.786 37.4543 536.516 37.2779C538.653 37.0599 540.801 37.2018 542.948 37.3437C543.607 37.3873 544.267 37.4308 544.925 37.464C547.729 37.6049 550.61 37.5437 553.235 36.5227C555.86 35.5018 558.211 33.3635 558.873 30.5637C561.18 34.6648 563.094 39.108 563.547 43.8207C564.001 48.5334 562.837 53.5687 559.661 57.0041C557.331 59.5246 554.071 61.0249 550.724 61.5421C547.376 62.0593 543.94 61.6437 540.67 60.7454C537.334 59.829 534.129 58.411 531.189 56.5507C531.982 57.9086 533.348 58.7995 534.722 59.5187C541.073 62.8426 548.718 63.4638 555.499 61.2071C555.779 61.114 555.956 61.5109 555.991 61.8106C556.703 67.7774 555.918 73.9258 553.733 79.5032C553.043 81.2657 552.204 82.9892 551.016 84.4456C549.284 86.5679 546.906 88.0136 544.523 89.3103C543.335 89.9568 542.11 90.585 540.784 90.8154C539.459 91.0458 537.998 90.827 536.974 89.9324L537.968 89.6954C538.015 89.1912 537.302 89.0823 536.809 89.1115C534.253 89.2631 531.844 87.6442 530.314 85.537C528.785 83.4299 527.976 80.8774 527.193 78.3757L528.6 79.2023C529.104 78.943 528.538 78.2013 528.027 77.956C526.632 77.2858 525.327 76.4187 524.161 75.3866C523.412 74.7244 522.687 73.933 522.498 72.9373C522.31 71.9416 522.889 70.7389 523.871 70.6256C524.327 70.573 524.76 70.7511 525.195 70.9296C525.608 71.0994 526.022 71.2695 526.457 71.2422C526.3 70.7011 525.802 70.3973 525.312 70.099C525.175 70.0156 525.039 69.9327 524.911 69.8451C524.325 69.4441 523.866 68.5252 524.4 68.055ZM536.513 90.5819C537.794 91.5719 539.51 91.944 541.072 91.5705C540.342 93.4787 541.261 95.7352 542.796 97.0464C544.331 98.3576 546.349 98.8988 548.322 99.2221C548.264 102.817 547.002 106.381 544.798 109.176C544.151 109.997 542.899 109.819 541.916 109.504C538.024 108.26 534.423 106.067 531.493 103.158C531.746 102.78 532.15 102.568 532.555 102.355C532.928 102.158 533.302 101.961 533.562 101.635C533.796 101.339 533.913 100.965 534.016 100.598C535.027 96.9984 535.215 93.1582 534.56 89.4727C535.176 89.4825 535.68 89.8989 536.171 90.3059C536.285 90.4001 536.399 90.4938 536.513 90.5819ZM596.126 43.5491C595.118 44.1328 593.98 44.9262 593.955 46.1151C593.934 47.1304 594.695 47.8109 595.481 48.5127C596.036 49.0081 596.602 49.5141 596.913 50.1559C595.297 49.9843 593.844 48.7215 593.41 47.1131C592.977 45.5046 593.591 43.6535 594.891 42.6524C596.344 41.5332 596.817 39.5205 596.962 37.6605C596.992 37.2774 597.013 36.8908 597.034 36.5037L597.034 36.5029V36.5029C597.115 35.0108 597.196 33.51 597.795 32.1625C598.03 31.6355 598.432 31.0866 598.996 31.0735C599.896 31.0527 600.219 32.2753 600.255 33.1994L600.416 37.3421C600.796 36.648 601.911 36.8204 602.366 37.4643C602.822 38.1083 602.811 38.9712 602.782 39.7668C602.994 38.0009 603.681 36.2977 604.747 34.8952C605.081 34.455 605.584 34.0028 606.102 34.1714C606.65 34.3495 606.785 35.0713 606.804 35.6612C606.968 40.7798 605.477 45.94 602.621 50.1373C601.711 51.4748 601.49 53.162 601.277 54.7825L601.263 54.8922C600.342 61.8979 598.812 68.8189 596.696 75.5455C595.437 79.5475 593.935 83.5492 591.409 86.8588C590.077 88.6043 588.487 90.1212 586.897 91.6217C581.365 96.8434 575.746 101.967 570.042 106.99C569.557 106.99 569.78 106.182 570.147 105.856C571.384 104.756 572.63 103.664 573.876 102.571L573.877 102.57L573.877 102.57C579.113 97.9802 584.354 93.3865 588.996 88.1742C590.349 86.6551 591.655 85.0761 592.679 83.3057C593.664 81.6016 594.372 79.7455 595.031 77.8825C597.926 69.6924 599.944 61.1756 601.038 52.535C601.116 51.9147 601.181 51.2429 600.876 50.7012C604.672 46.4992 606.56 40.5476 605.902 34.8543C604.424 35.5537 604.102 37.2508 603.77 38.9982C603.492 40.4627 603.208 41.9624 602.23 42.9399L602.084 38.8034C602.07 38.4064 602.011 37.9327 601.663 37.7578C601.09 37.4693 600.595 38.2998 600.537 38.9528C600.479 39.6057 600.368 40.4643 599.739 40.5724C599.945 37.5626 599.771 34.5255 599.222 31.5614C597.814 32.91 597.78 35.1112 597.75 37.1171C597.748 37.2408 597.746 37.3639 597.744 37.4859C597.706 39.5857 597.176 42.0916 595.259 42.8211C595.721 43.1906 596.242 42.8191 596.774 42.4397C597.003 42.2758 597.235 42.1104 597.465 42.0026C598.742 41.4044 600.204 43.0577 599.847 44.4516C599.49 45.8456 597.968 46.6386 596.565 46.6326C596.86 46.1289 597.434 45.8238 597.986 45.5307C598.714 45.144 599.404 44.778 599.36 44.0044C599.322 43.3316 598.613 42.8694 597.957 42.8739C597.302 42.8784 596.698 43.2183 596.126 43.5491ZM535.531 67.7315C535.548 67.4841 535.897 67.4477 536.149 67.458C536.924 67.4897 537.682 67.256 538.417 67.0122L538.521 66.9776C539.223 66.7445 539.934 66.508 540.673 66.4866C541.448 66.4642 542.276 66.7201 542.74 67.3314C542.801 67.412 542.858 67.5072 542.844 67.6069C542.821 67.7773 542.602 67.8592 542.433 67.8162C542.301 67.7827 542.191 67.7004 542.082 67.6184L542.081 67.6183C542.05 67.595 542.019 67.5719 541.988 67.5498C541.129 66.9478 539.942 67.2076 538.954 67.5708C538.88 67.5981 538.805 67.626 538.73 67.654L538.729 67.6544C537.806 67.9978 536.83 68.3613 535.896 68.0855C535.719 68.0331 535.519 67.9132 535.531 67.7315ZM544.309 79.5694C544.898 79.5982 545.537 79.6127 546.018 79.2594C546.689 78.7664 546.772 77.7768 546.698 76.9297C546.653 76.428 546.576 75.9298 546.499 75.4317L546.499 75.4317C546.393 74.747 546.287 74.0627 546.267 73.3705C546.232 72.1748 546.497 70.896 547.327 70.0613C547.372 69.771 547 69.5631 546.733 69.6644C546.466 69.7657 546.307 70.0457 546.191 70.314C545.395 72.1468 545.592 74.2219 545.783 76.2455L545.783 76.2462L545.784 76.2469C545.813 76.5542 545.842 76.8602 545.867 77.1641C545.908 77.6558 545.903 78.2351 545.524 78.5346C545.241 78.7576 544.871 78.7332 544.504 78.7089H544.504H544.504H544.504H544.504H544.504H544.504C544.383 78.701 544.263 78.6931 544.147 78.6939C543.902 78.6956 543.606 78.7901 543.56 79.0382C543.497 79.389 543.964 79.5525 544.309 79.5694ZM542.813 69.8845C543.091 69.844 543.327 70.1547 543.318 70.4478C543.31 70.7409 543.13 70.9976 542.932 71.2045C542.213 71.9538 541.172 72.2999 540.158 72.3058C539.143 72.3117 538.148 72.0053 537.211 71.5986C537.009 71.5107 536.802 71.4137 536.652 71.2461C536.502 71.0785 536.422 70.8221 536.513 70.6134C536.605 70.4048 536.905 70.3116 537.057 70.477C537.748 71.2282 538.822 71.4223 539.818 71.4398C540.718 71.4557 541.746 71.2864 542.243 70.4996C542.271 70.4555 542.298 70.4087 542.325 70.3615C542.451 70.1447 542.583 69.9182 542.813 69.8845ZM554.828 71.0293C553.705 72.0302 551.968 72.3424 550.544 71.7992C550.151 71.6492 549.766 71.4246 549.556 71.0721C549.473 70.9343 549.421 70.7656 549.48 70.6172C549.575 70.3773 549.918 70.3141 550.167 70.407C550.355 70.477 550.508 70.6069 550.66 70.7366C550.71 70.7788 550.759 70.821 550.81 70.8611C551.706 71.5687 553.116 71.5891 554.034 70.9076C554.054 70.8932 554.073 70.8783 554.093 70.8634C554.24 70.7521 554.393 70.6358 554.577 70.6328C554.785 70.6295 554.981 70.8932 554.828 71.0293ZM517.238 132.943C516.812 133.203 516.508 133.626 516.22 134.039C513.262 138.284 510.65 142.782 508.422 147.471C506.17 152.208 504.313 157.129 502.458 162.044C502.301 162.461 502.147 162.943 502.356 163.335C502.645 163.878 503.476 163.852 503.927 163.442C504.378 163.032 504.549 162.396 504.705 161.799C507.296 151.846 511.601 142.387 517.149 133.794C517.318 133.532 517.475 133.143 517.238 132.943ZM541.623 85.5968C541.644 86.0883 541.077 86.3691 540.608 86.3731C540.098 86.3774 539.552 86.1848 539.275 85.7357C538.999 85.2867 539.131 84.5671 539.609 84.3834L536.304 83.0746C536.026 82.9645 535.732 82.8526 535.439 82.9037C535.371 82.9155 535.304 82.936 535.238 82.9565C535.126 82.9909 535.014 83.0252 534.898 83.0178C534.714 83.006 534.523 82.808 534.607 82.6356C534.639 82.571 534.7 82.5294 534.758 82.4908L535.97 81.6926C536.108 81.6021 536.259 81.5079 536.421 81.5252C536.582 81.5426 536.731 81.7341 536.65 81.8821C536.412 82.3209 537.006 82.7291 537.471 82.856C539.036 83.2821 540.613 83.7105 542.228 83.8036C543.842 83.8967 545.515 83.6326 546.9 82.7572C547.325 82.4883 547.853 82.1571 548.274 82.4321C548.112 82.9202 547.634 83.1908 547.168 83.4553C546.645 83.7514 546.136 84.0398 546.098 84.6174C546.058 85.2134 545.55 85.7349 544.981 85.7628C544.413 85.7908 543.86 85.3214 543.768 84.7318C543.753 84.6386 543.646 84.6021 543.557 84.586C543.148 84.5116 542.716 84.4729 542.327 84.6237C541.937 84.7745 541.604 85.1615 541.623 85.5968ZM541.025 84.5394C540.843 84.3046 540.462 84.3397 540.258 84.5541C540.055 84.7686 540.003 85.0989 540.034 85.3998C540.275 85.5416 540.598 85.5111 540.811 85.3263C541.024 85.1414 541.113 84.8144 541.025 84.5394ZM545.353 84.7164C545.383 84.5973 545.458 84.4916 545.559 84.4283C545.434 84.2003 545.105 84.2897 544.881 84.4079C544.763 84.4706 544.629 84.5545 544.613 84.693C544.593 84.8632 544.781 84.994 544.944 84.9734C545.106 84.9529 545.239 84.8342 545.361 84.7207L545.353 84.7164ZM552.186 68.4474C552.341 68.4882 552.495 68.529 552.652 68.5589C553.467 68.7139 554.347 68.5586 555.04 68.1373C555.225 68.0251 555.053 67.7323 554.833 67.7106C554.663 67.6938 554.504 67.7653 554.348 67.8362L554.347 67.8362C554.302 67.857 554.256 67.8777 554.21 67.8961C553.618 68.133 552.958 67.9967 552.3 67.8609C551.614 67.7193 550.931 67.5784 550.333 67.8628C550.117 67.9655 549.916 68.1515 549.927 68.3742C549.938 68.5969 550.28 68.7688 550.439 68.6C550.694 68.3291 551.128 68.2602 551.515 68.3044C551.744 68.3305 551.965 68.3889 552.186 68.4474Z" fill="#00160A"/> <path fill-rule="evenodd" clip-rule="evenodd" d="M541.072 91.5704C540.613 91.6801 540.141 91.7254 539.671 91.7098C538.54 91.6722 537.254 95.7031 539.671 100.301C542.047 104.818 546.522 106.626 547.101 105.196C547.866 103.305 548.289 101.269 548.322 99.222C546.349 98.8987 544.331 98.3575 542.796 97.0463C541.261 95.7351 540.342 93.4786 541.072 91.5704Z" fill="#E7EAEE"/> <ellipse cx="532.476" cy="79.8251" rx="1.416" ry="1.45498" fill="#FFB61D"/> <ellipse cx="550.412" cy="80.3101" rx="1.41599" ry="1.45499" fill="#FFB61D"/> <path fill-rule="evenodd" clip-rule="evenodd" d="M535.087 132.544C535.598 131.945 536.629 132.229 537.41 132.434C539.489 132.981 542.02 132.343 543.576 130.879C545.142 129.406 547.998 131.14 550.047 130.227C551.281 129.677 552.285 128.183 553.526 128.56C555.047 129.023 556.934 128.639 558.183 127.63L558.185 127.332L558.192 126.675C556.949 127.786 554.961 128.227 553.372 127.744C552.132 127.367 551.127 128.86 549.893 129.41C547.845 130.323 544.988 128.59 543.422 130.063C541.897 131.497 539.436 132.139 537.381 131.649L536.971 131.543C536.24 131.358 535.384 131.198 534.934 131.727C533.512 133.396 530.71 134.098 528.653 133.301L528.904 134.154L529.025 134.196C531.058 134.864 533.716 134.154 535.087 132.544ZM533.158 123.031C533.697 122.468 534.707 122.764 535.472 122.98C537.51 123.553 540.059 123 541.683 121.631C543.317 120.254 546.065 121.985 548.149 121.156C549.405 120.657 550.482 119.248 551.695 119.638C553.183 120.118 558.701 117.178 558.701 117.178C557.311 117.146 553.232 119.334 551.694 118.885L551.585 118.851C550.372 118.46 549.295 119.87 548.039 120.369C545.955 121.197 543.207 119.467 541.573 120.844C539.982 122.185 537.502 122.743 535.485 122.225L535.083 122.115C534.366 121.919 533.524 121.746 533.048 122.243C531.547 123.811 527.472 123.153 526.722 123.607C526.722 123.607 531.71 124.544 533.158 123.031Z" fill="#FFB61D"/> <path fill-rule="evenodd" clip-rule="evenodd" d="M534.662 150.581C535.173 149.982 536.204 150.266 536.984 150.471C539.064 151.018 541.594 150.38 543.151 148.916C544.717 147.443 547.573 149.177 549.621 148.264C550.856 147.714 551.86 146.22 553.1 146.598C554.622 147.06 556.508 146.676 557.758 145.667L557.759 145.37L557.767 144.712C556.523 145.823 554.536 146.264 552.947 145.781C551.706 145.404 550.702 146.897 549.467 147.447C547.419 148.36 544.563 146.627 542.997 148.1C541.472 149.534 539.011 150.176 536.956 149.686L536.546 149.581C535.815 149.395 534.959 149.236 534.508 149.764C533.087 151.433 530.284 152.135 528.227 151.338L528.478 152.191L528.6 152.233C530.633 152.901 533.29 152.191 534.662 150.581ZM532.733 141.068C533.272 140.505 534.282 140.802 535.047 141.017C537.085 141.59 539.634 141.037 541.258 139.669C542.892 138.291 545.64 140.022 547.723 139.194C548.979 138.694 550.056 137.285 551.269 137.676C552.757 138.155 558.276 135.215 558.276 135.215C556.886 135.183 552.806 137.371 551.269 136.922L551.159 136.888C549.946 136.497 548.87 137.907 547.613 138.406C545.53 139.234 542.782 137.504 541.148 138.881C539.556 140.222 537.076 140.781 535.06 140.263L534.658 140.152C533.941 139.956 533.099 139.784 532.623 140.281C531.122 141.848 527.047 141.19 526.297 141.644C526.297 141.644 531.285 142.581 532.733 141.068Z" fill="#FFB61D"/> <path fill-rule="evenodd" clip-rule="evenodd" d="M530.386 47.8877C531.751 48.7514 536.754 39.2593 544.203 39.2593C559.993 39.2593 561.18 34.6651 558.873 30.564C558.211 33.3637 555.86 35.502 553.235 36.523C550.61 37.5439 547.729 37.6051 544.925 37.4642C542.122 37.3232 539.309 36.9931 536.516 37.2781C534.786 37.4545 532.965 37.9336 531.802 39.2593C530.031 41.2774 530.421 44.3831 530.921 47.0501C530.143 46.6282 529.713 45.6243 529.938 44.751C526.831 45.3392 524.57 48.3091 523.775 51.4476C522.981 54.5861 523.367 57.8962 523.757 61.114C523.923 62.4798 524.089 63.8457 524.254 65.2115C524.254 65.2115 524.962 54.2086 525.921 51.4476C527.227 47.6889 530.691 48.4096 530.386 47.8877Z" fill="#E7EAEE"/> </svg>