<svg width="26" height="28" viewBox="0 0 26 28" fill="none" xmlns="http://www.w3.org/2000/svg">
<path d="M8.87508 19.6667H4.63928C3.26097 19.6667 2.57182 19.6667 2.07361 19.9919C1.8415 20.1434 1.64341 20.3415 1.49192 20.5736C1.16675 21.0718 1.16675 21.761 1.16675 23.1393V23.1393C1.16675 24.7867 1.16675 25.6104 1.5757 26.1473C1.76494 26.3958 2.00973 26.5964 2.29046 26.7333C2.89716 27.029 3.70487 26.8675 5.32029 26.5444L5.77678 26.4531C7.2013 26.1682 7.91355 26.0257 8.35636 25.5376C8.40123 25.4882 8.44359 25.4365 8.48329 25.3828C8.87508 24.8528 8.87508 24.1265 8.87508 22.6737V7.5293C8.87508 5.95954 8.87508 5.17467 9.3284 4.62171C9.78171 4.06876 10.5513 3.91483 12.0906 3.60697L19.5073 2.12364C21.7209 1.68092 22.8277 1.45956 23.5597 2.05967C24.2917 2.65979 24.2917 3.78851 24.2917 6.04596V8.87508M24.2917 16.5834V19.5904C24.2917 21.0431 24.2917 21.7695 23.9 22.2994C23.8603 22.3531 23.8179 22.4048 23.773 22.4543C23.3302 22.9424 22.618 23.0848 21.1934 23.3697L20.737 23.461C19.1215 23.7841 18.3138 23.9457 17.7071 23.6499C17.4264 23.5131 17.1816 23.3124 16.9924 23.064C16.5834 22.5271 16.5834 21.7034 16.5834 20.0559V20.0559C16.5834 18.6776 16.5834 17.9885 16.9086 17.4903C17.0601 17.2582 17.2582 17.0601 17.4903 16.9086C17.9885 16.5834 18.6776 16.5834 20.0559 16.5834H24.2917ZM24.2917 16.5834V8.87508M24.2917 8.87508L8.87508 11.9584" stroke="black" stroke-width="2"/>
</svg>
