<svg width="25" height="32" viewBox="0 0 25 32" fill="none" xmlns="http://www.w3.org/2000/svg">
<path d="M14.125 19.75H7.32865C6.28302 19.75 5.76021 19.75 5.31317 19.854C4.0255 20.1534 2.96896 21.0697 2.49043 22.3021C2.32429 22.73 2.25035 23.2475 2.10248 24.2826V24.2826C1.88878 25.7785 1.78194 26.5264 1.87145 27.1114C2.13201 28.814 3.45327 30.1587 5.15108 30.4491C5.73437 30.5488 6.48406 30.4551 7.98346 30.2677L8.8896 30.1544C10.5219 29.9504 11.3381 29.8484 11.9783 29.5136C12.8526 29.0565 13.5271 28.2924 13.8722 27.3682C14.125 26.6914 14.125 25.8689 14.125 24.2239V6.88851C14.125 5.27017 14.125 4.461 14.599 3.9015C15.0729 3.34201 15.8711 3.20899 17.4674 2.94293L23.5741 1.92515C23.7099 1.90251 23.7778 1.89119 23.8145 1.93088C23.8511 1.97057 23.8344 2.03736 23.801 2.17093L22.2807 8.25221C22.2658 8.31189 22.2583 8.34172 22.2373 8.36173C22.2164 8.38173 22.1862 8.38776 22.1259 8.39982L14.125 10" stroke="black" stroke-width="2"/>
</svg>
